/* XPM */
static char *db503d344ca24ff2b179a8162b82773efdDAk3mzKYgrMOuH[] = {
/* columns rows colors chars-per-pixel */
"64 64 4 1 ",
"  c None",
". c black",
"X c #A60000",
"o c #F51B1B",
/* pixels */
"                                                                ",
"                                                                ",
"                                                                ",
"                                                                ",
"                      ....................                      ",
"                      ....................                      ",
"                      ..oooooooooooooooo..                      ",
"                      ..oooooooooooooooo..                      ",
"                      ..oooooooooooooooo..                      ",
"                      ..oooooooooooooooo..                      ",
"                      ..oooooooooooooooo..                      ",
"                      ..oooooooooooooooo..                      ",
"                      ..oooooooooooooooo..                      ",
"                      ..oooooooooooooooo..                      ",
"                      ..oooooooooooooooo..                      ",
"                      ..oooooooooooooooo..                      ",
"                      ..oooooooooooooooo..                      ",
"                      ..oooooooooooooooo..                      ",
"                      ..oooooooooooooooo..                      ",
"                      ..oooooooooooooooo..                      ",
"                      ..oooooooooooooooo..                      ",
"                      ..oooooooooooooooo..                      ",
"    ....................oooooooooooooooo....................    ",
"    ....................oooooooooooooooo....................    ",
"    ..oooooooooooooooooooooooooooooooooooooooooooooooooooo..    ",
"    ..oooooooooooooooooooooooooooooooooooooooooooooooooooo..    ",
"    ..oooooooooooooooooooooooooooooooooooooooooooooooooooo..    ",
"    ..oooooooooooooooooooooooooooooooooooooooooooooooooooo..    ",
"    ..oooooooooooooooooooooooooooooooooooooooooooooooooooo..    ",
"    ..oooooooooooooooooooooooooooooooooooooooooooooooooooo..    ",
"    ..oooooooooooooooooooooooooooooooooooooooooooooooooooo..    ",
"    ..oooooooooooooooooooooooooooooooooooooooooooooooooooo..    ",
"    ..XXXXXXXXXXXXXXXXXXXXXXXXXXXXXXXXXXXXXXXXXXXXXXXXXXXX..    ",
"    ..XXXXXXXXXXXXXXXXXXXXXXXXXXXXXXXXXXXXXXXXXXXXXXXXXXXX..    ",
"    ..XXXXXXXXXXXXXXXXXXXXXXXXXXXXXXXXXXXXXXXXXXXXXXXXXXXX..    ",
"    ..XXXXXXXXXXXXXXXXXXXXXXXXXXXXXXXXXXXXXXXXXXXXXXXXXXXX..    ",
"    ..XXXXXXXXXXXXXXXXXXXXXXXXXXXXXXXXXXXXXXXXXXXXXXXXXXXX..    ",
"    ..XXXXXXXXXXXXXXXXXXXXXXXXXXXXXXXXXXXXXXXXXXXXXXXXXXXX..    ",
"    ....................XXXXXXXXXXXXXXXX....................    ",
"    ....................XXXXXXXXXXXXXXXX....................    ",
"                      ..XXXXXXXXXXXXXXXX..                      ",
"                      ..XXXXXXXXXXXXXXXX..                      ",
"                      ..XXXXXXXXXXXXXXXX..                      ",
"                      ..XXXXXXXXXXXXXXXX..                      ",
"                      ..XXXXXXXXXXXXXXXX..                      ",
"                      ..XXXXXXXXXXXXXXXX..                      ",
"                      ..XXXXXXXXXXXXXXXX..                      ",
"                      ..XXXXXXXXXXXXXXXX..                      ",
"                      ..XXXXXXXXXXXXXXXX..                      ",
"                      ..XXXXXXXXXXXXXXXX..                      ",
"                      ..XXXXXXXXXXXXXXXX..                      ",
"                      ..XXXXXXXXXXXXXXXX..                      ",
"                      ..XXXXXXXXXXXXXXXX..                      ",
"                      ..XXXXXXXXXXXXXXXX..                      ",
"                      ..XXXXXXXXXXXXXXXX..                      ",
"                      ..XXXXXXXXXXXXXXXX..                      ",
"                      ..XXXXXXXXXXXXXXXX..                      ",
"                      ..XXXXXXXXXXXXXXXX..                      ",
"                      ....................                      ",
"                      ....................                      ",
"                                                                ",
"                                                                ",
"                                                                ",
"                                                                "
};
