/* XPM */
static char *_663013570880[] = {
/* columns rows colors chars-per-pixel */
"64 64 136 2 ",
"   c #190E0B",
".  c #22120E",
"X  c #28150F",
"o  c #251511",
"O  c #2A1612",
"+  c #251915",
"@  c #2C1A15",
"#  c #271F1B",
"$  c #2B1E1A",
"%  c #361711",
"&  c #341C15",
"*  c #3B1D16",
"=  c #341F19",
"-  c #3A1F18",
";  c #27211D",
":  c #2C221D",
">  c #33221C",
",  c #3C231B",
"<  c #3E281F",
"1  c #2C2621",
"2  c #2F2923",
"3  c #322721",
"4  c #3D2620",
"5  c #342A24",
"6  c #3C2B24",
"7  c #372F29",
"8  c #3C2F28",
"9  c #393126",
"0  c #3D332B",
"q  c #471F17",
"w  c #402017",
"e  c #43251D",
"r  c #4A261D",
"t  c #45281F",
"y  c #4A291F",
"u  c #51281F",
"i  c #52261C",
"p  c #422720",
"a  c #4A2720",
"s  c #442B22",
"d  c #4B2C23",
"f  c #4A2F28",
"g  c #522E25",
"h  c #592E25",
"j  c #542F28",
"k  c #423027",
"l  c #4D3026",
"z  c #44332B",
"x  c #4C342A",
"c  c #42392E",
"v  c #4C392E",
"b  c #533126",
"n  c #5A3227",
"m  c #54332A",
"M  c #59362C",
"N  c #54392E",
"B  c #5B392E",
"V  c #433730",
"C  c #453A31",
"Z  c #4B3C32",
"A  c #543C32",
"S  c #5C3C32",
"D  c #533F38",
"F  c #61362C",
"G  c #623D2D",
"H  c #683C2E",
"J  c #623D32",
"K  c #693E31",
"L  c #4C4136",
"P  c #4E4339",
"I  c #544236",
"U  c #5C4236",
"Y  c #54453A",
"T  c #5C453A",
"R  c #55493D",
"E  c #5C4A3D",
"W  c #5F503E",
"Q  c #62402F",
"!  c #634235",
"~  c #6A4333",
"^  c #604937",
"/  c #63453A",
"(  c #6A4639",
")  c #634B3C",
"_  c #6A4B3C",
"`  c #724634",
"'  c #724D3D",
"]  c #63513E",
"[  c #6A513E",
"{  c #6C593F",
"}  c #71533D",
"|  c #70583E",
" . c #574A40",
".. c #5C4D41",
"X. c #5E5143",
"o. c #5F5548",
"O. c #634D42",
"+. c #6A4D41",
"@. c #645444",
"#. c #6A5444",
"$. c #665846",
"%. c #6B5A46",
"&. c #655649",
"*. c #6B5649",
"=. c #65594B",
"-. c #6C5C4B",
";. c #705544",
":. c #725C45",
">. c #715748",
",. c #715E4B",
"<. c #795D4D",
"1. c #6D5E51",
"2. c #705E50",
"3. c #6F604C",
"4. c #746047",
"5. c #7B6041",
"6. c #73614D",
"7. c #7A664E",
"8. c #6E6151",
"9. c #6F6658",
"0. c #746352",
"q. c #796653",
"w. c #776857",
"e. c #7C6A55",
"r. c #756458",
"t. c #75695A",
"y. c #7D6B59",
"u. c #7F715B",
"i. c #816D56",
"p. c #816D5A",
"a. c #83715C",
"s. c #847460",
"d. c #8A7966",
"f. c #917F6F",
"g. c #948776",
"h. c #9E8F7E",
/* pixels */
"$.0.%.e.q.0.6.,.0.#.%.$.] I T $.-.$.,.*.0.1.0.r.6.0.q.0.0.w.6.0.3.3.,.0.e.e.<.0.0.0.3.6.-.6.0.6.6.0.q.q.,.Y &.X.-.y.p.y.y.e.q.0.",
") &.r.2.*.*.@.@.@.E E ..W c @.R ..#.E _ &.@...O.@.#.! U *.1.=.%.0.r.y.>.q.@.y.a.0.3.6.%.3.6.-.3.0.-.8.-.&.-.C -.1.0.-.#.%.%.$.#.",
"K M M B M j n l m < x P 9 > c X.E ! ~ K m J M G G n g b M S E E  ./ #.+.<.6.3.-.6.@.y.0.] ] T -.*./ ) E E ) 0 @./ J J m N M J G ",
"~ m a t j d e - , & > + L X.=.X.E K n n g g b g g b b u d r s a B S F h M :.7.6.e.P -.<.] I U U U K F G M h & U h M n j d g J y ",
"m b y a d t p d - > 3 5 w.$.X.X.A M b n g y r * r d r d d a j m d g g r d p.e.0.e.Y O.m h r r t d r u g y e , &.b n n M M S M s ",
"b d d d d d f 3 + z D O.0.@.-.%.Z ^ n g g y r , t w e r a - t d d r r a S ,.<.q.r.Y v t e q r a a d a d * O a ) n b M d n m m m ",
"s t s < < , 4 > D O.x m m @.%.6.v ) g g g e e w , * w , , e e r r e j d N -.p.6.3.Y = k r a d g m g d d = z +.M n B m b S B m d ",
", t s < x x D 6 Y x = D @.-.,.-.) x g g y r * , g g * * , % w s g r s M S 1.6.=.@.s $ 6 a g g M g r p , s #.S M B g y d B B M d ",
"a D m x m x = k E N , s  .&.&.6.;.Q N l y e , e d r y g e a t t t t d s d Y @.E $.A x T 8 M j d t , = p U U b n n n l d M b n l ",
"d j d N T l @ I S f t , N @.%.0.:.n g < s - % , r t e w t d S l m g m e > Y 1.r.0.! a d 4 Z , , , 4 6 c A m g g n M y b l y b m ",
"t d p m A S 3 D m d d e M ..-.%.#.F r = x , m d d d e e e e d y s e e e @.2.8.0.0.) w a a 3 f v 8 I v 5 k l d g g d y l l l d l ",
"s s x x f E m 5 D t r w i U -.0.#.y * * x l m d y d y y e t y e e = , A 6.6.w.0.y.*., - p p 0 N < z @ 8 0 T r * B m m d l b t y ",
"d s S x I A s > R l d < d ) -.%.@.m % * 4 A m e t a a a t t t , , & d A ,.%.3.y.r.,.4 q , 4 =  .* , 6 V 5 O., = t y d e t t & & ",
"m I I T E Y E R  .E T 3.%.w.0.=.&.U , r d N e e t w t < * < = = , l U / $.-.%.0.0.0.E x v x p E - r d v 8 > % & & * & = % & , l ",
"E @.%.O.8.r.8.0.-.-.-.3.w.-.=.%.-.&.N r e g s , s > = + < z N U ) U ~ 7.6.6.6.:.%.&.%.*. . .D +.O.S A m v 0 > k l d x b s x U ) ",
"0.0.0.6.0.e.a.w.0.0.R @.X.X.&.-.t.-.@.#.O.,.-...Y ..X.@.8.0.w.:.} :.e.e.q.e.e.y.y.y.0.=.2.V ..=.&. ...o.o.L L 0 o.E R $.r.W 6.6.",
"3.-.-.3.-.:.6.6.$.*.@...c 0 V  .g.X.Y L L @.3.@.@.X.-.@.%.q.6.6.,.@.%.q.6.6.i.q.y.-.%.6.o.-.q.w.r.2.r.r.8. ...L 8.8.0.q.p.q.0.i.",
"$.3.3.@.E E $.] &.,.Z @.&.-.X... .Z c X.Y L P Y Z I #.T [ T ! S ! ! ^ ! ! ^ -.-.>.<.*.;.E -.-.6.&.O.%.r.0.,.@.Y 7 R %.@.1.-.-.-.",
"b ! ) z c B x k V s Y *.Y ..T E X.@...Y U 0.%.T s E / B b B U G F g J B n M m B B n M * , v l k s l J q.q.<.>.>.E 1 ..D A N m b ",
"g ' z I P z 9 v k D +./ m / S B S S S N N B N l 6 Z x d m B U B m m b m m d g m b J , & x @.T N m B b O.6.( ~ J ) ) D O.O.v A n ",
"j - N ,.$.7 0 # 3 D A f S U N m B S m m N v d s N @.Z A s , t s b l s < m m j a e , p @ O.A < t y B r ! [ } J J J J v V S N S S ",
"m s >.$.T l 2 6 7 Y m S S j M j d a a , < N l 8 z , s 8 x = < d < l e e s e s f s e t > T l m d l y r [ ^ ( K M S S S D Z k m N ",
"d D +./ ) s x  .z 0 E m d f j s a l , @ = r l B T > z 4 > = o = s < x m s , s < t , @ O ) S l m b w % y v ) S M M M N j A E T N ",
"M T M U ) Z f l k $ Y l d a M m d d m , e e < < e = D > s s e x s , l l a s A d e @ , D @.m m B B y r n I E S m m m j m j j f j ",
"S m f S -.Y x S k 8 0 S s d 4 d d l m s d t , & 4 8 A s l 4 s N l d m m s m E s p @ 3 O.S J B m n u w g %.Y U m j m S m M j a s ",
"S j x D W N m s l f Z P 3 s s S t , b ! m a a , & . 5 = 8 , s , - , a m e s - , $ x O.#.M a m m B ` i b <.) / b M M m j j f m J ",
"B m j / W T , l N k > x s 6 A T x U ) m d m m e @   c = s s s & - j s s e m , = 4 E m S / S S / _ G r d @.) b u j j j j M M m J ",
"n g m +.3.Y t < M > 8 Y k 6 0 v d s s g , s l m d & Y a s , s s z s s a , p a $ O.A l U S +.! _ ~ n q M $.] B u a a f p f a j J ",
"( ( +.#.,.,.E t x = Z 8 x k C k k d f e e l N m N s T x d s l e s M G l e b d s E s M m l M _ ~ Q w r b 6.6.U b d a = . & s d J ",
") *.6.e.0.%.W t j a N x Y x ) E O.O.S g m m d d M l T ~ ( ~ n m b e l l N d w b S A m m d b ~ ` h % t %.-.$.-.U l d s , x s d N ",
"*.>.q.$.6.-.%.@.T U ~ / ) B J B ! +.m B S g b S x B } ~ ' B b ^ ) @.6.i.q.,.$.#.-.r.o.@.U N x b b l @.-.3.-.0.=.] U ..@.&.) A < ",
"#.-.%.@.-.-.) %.%.] #.%.6.,.@._ -.0.0.-.) e b %.6.^ G [ [ #.[ 6.q.6.-.6.;.| 6.,.-.r.r.8.8.8.8.=.-.=.3.6.0.%.%.-.-.-.0.3.@.Y Y @.",
"] @.L %.%.] ] 4.{ W 3.3.3.W 0.3.3.q.3.@.T U [ #.] ^ E %.@.$.%.3.0.q.6.q.:.5.7.6.w.,.%.[ $.8.3.w.8.$.q.6.6.6.7.4.@.@.0.0.Y -.X.-.",
"E E I $.3.@.R Q Q W ] ] $.@.] W $.] @.U S U ! B B n B U v N T S ^ ] T ) U I _ [ [ ] q.%.e.$.3.4.w.3.3.0.6.6.-.6.6.@.6.$.E 0.R -.",
"N l x U M B Q B Q Q Q Q [ P L { W R ) ! B B B b y w t s y > s p ( m m b n & Q g d N $.%.0.u.e.6.%.%.,.[ [ -.) ~ H Q B m x Z z $.",
"M B N B b b g g b b b t b N I 9 P R v B B n s e @ Q / v x > 8 3 3 @ @ , < > ) t y t @.0.e.u.7.4.-.) [ ~ G Q G u g g y X & x S U ",
"l b l t < l y l y y l y y e I v 0 P R U m < @ = + X.N N f k 1 3 7 2 ; ; + ; 9 , p ,  .r.$.W %.[ { ` ~ g ~ ~ b w r @ O > E O.A m ",
"y t t y y y g y l y t , w , I c L 0 v k $ O $ # ; > < t 4 > 6  . ...V 1 : : 2 3 8 $ 3 7 2 : c X._ ~ B n Q b r , & = D C ..s , g ",
"e e b b l l l y t y b y t t I 9 L  .3 > 3 3 V Z R  .c 5 > 8 c I m A A T C -.Z 7 1 1 L 3.P ; 1 1 > A _ m M l b , . 4 8 > 5 > r s ",
"a y d l y l l b y m b y t t v 9 &.L z E ..E  .I v x k I Y Y v E x d , , $ @.a ..X.X.=.@.W R 0 2 : c x m M B < + s E 8 > $ C m r ",
"t t d d y d d n b l g y t e z 0 P P Y 6 m B A S S U A U U x U U a l s N < Y d d y t z ) X.3.3.E C ; : $ > < o : 5 > > z O.1.U d ",
"m b g M b g b y u y l y t , < L P P R N Z s m B G B s l l d N N m m d l l 8 x s l < x s.[ L 3.E v $  .5 3 3 + 5 &.@.O.U S f A l ",
"t t g g l n b t d r l y , l k 2 P X.0 z S N l b d d s x l s t d t d a a , , v > N t m d.%.@.%.S j 4 C 1 5 5 E &.@.j e t w e s a ",
"< , t b d b e e l y r r w > < L R o.X.9 z N m x U B m x x m k N l k d t = z 5 k I s s W ] ) _ m d $ 6 8 C &.&.m s d a s e r d s ",
"t s t b b u y y g g e e w k 0 R E @.-.v c / m , M N m t d s < < k d x t > v # Z I l < R ] 3.B b d s Z Y Y D d t s l e t t e t , ",
"t y b b b g b y y y r e y l Y W @.L 6 m m I d s t t t & = , e s m A x l 4 I 6 @.A a v W ] R t y p d p 4 , = = * e s a , , t w e ",
"B l n l t l b l y t d d b %.-.:.@.@.W A s B s m t v < 4 , s m x x k s , & > s s t = d c I L %.$.^ U ^ T E o.R I A x x t l M B B ",
"^ E T E R T E E ....&.] 0.w.6.3.6.6.@.I Y I I ] @.&.Y @.%.*.E 0.8.$.E Z c v A < > > N 9 X.R R %.4.i.6.:.-.3.-.3.0.6.-.W %.6.e.4.",
"-.%.@.-.$.-.@.8.8.3.3.-.%.[ 4.] *.*.*.O.E @.) %.{ #.Y P 2.#.@.<.,.%.W X.o.E I A N U @.I =.$.-.1.3.{ 3.3.%.q.-.%.7.3.@.@.3.6.3.3.",
"] @.%.=.-.] 3.q.3.6.W @.%.{ ) $.+.O.#.*.#.I E @.] E W I *.*.$.@.1.@.N S E @.Y E W c X.....&.=.*.e.c 9 3.%.,.6.6.$.] ) U T ) _ ^ ",
"B M ) %.-.0.-.@.E ^ _ [ ! B v ) T / +.K G ' ) O.+.T ) U D B m j m l = e b N M E I t O.S ) +.*.*.-.L : 3._ #.%.%.[ G n G B ! G G ",
"b m m @.,.@.! H n h b ~ ^ s A #./ +.>.2.+.S J S +.#.>.#.*.S O.j j +.s c / B +.D m A E S J S D &.E c ; o.K ~ @.#.^ Q Q b m m B S ",
"l x s v -.6./ h M M +.J m f +./ T +.+./ +.+.S M J J / J J A N j m J ( >.+.S S J M d f ! j g g N m m + P S T 6.^ N d N m s < s a ",
"t l t x -.-.J h j d M A 6 +.U S J S S S J A s S J S S S S S M j ! M J S M M M M b s S S j a a s d f o V T S ) U b s s e , - , d ",
"s , N N -.3.A g j B S j 4 O.j S S M S M S S D +.D M S M m j j f j j M j j M N j f p +.N j g a j d s o V #.+.+./ B k , O @ & o , ",
"x s m b #.@.v M m M j f + O.m S j S S j M S S m S j f j f d d d j s h j j j j N f A T j g j a d g - O *.#.D T D d , , > x = s l ",
"x d b U 6.r.S m j f j f + &.m m N M j M d M j j j j S m f d d s M s d g j M a j f M N M j d d a a o 1 O.n g T v < d , , v < s A ",
"- , d n @.0.U g j p f f = 2.m m M m j v j N j j M S M s d f M J M M f M B M S p N / S j m a a p - = 1 O.g u J m > o . @ k , s , ",
"= l d d @.-.! g a , f 4 M &.M m m M m b m N f j M M j j M M m S S j j M j j f s / S m g d d j j s r + Z S h / A = . @ < s , t - ",
"e a e y ] -.) s j f V f T m m j m m g d j m j d s a d a d a j J M j f j a p p p S d a a a j s p e s 4 Z U M #.) l e < t s e s a ",
"t m B N ,.=.-.E < = s x D a j B m d y y d l l n j m d d d d m ! +./ ! M j m Y 8 E d l x d g N m f 6 m D -.-.-.:.( m & m d s j s ",
"b l S -.%.0.-. .Y O.O.E D f m m N l I N M U U E O.O.@.*.) ) @.#.2.,.*.*.*.1...Z -.@.-.&.-.@.W E &.&.@.-.3.$.3.$.[ A x ;._ ! m g ",
"#.6.q.6.q.0.&.-...-.2.-.-.*.O...X.@.-.$.$.$.3.%.6.4.6.6.,.6.4.i.a.6.%.a.h.g.1...6.6.3.] =.-.-.%.-.:.,.$.:.7.e.6.@.U ,.:.} _ ! #.",
"6.$.6.7.e.w.r.-.6.0.,.>.,.@.2.2.0.6.4.] %.%.%.%.4.7.7.6.7.<.7.i.i.4.7.7.i.e.e.-.6.6.[ #.$.-.W 6.@.-.] ,.{ 4.:.e.7.6.e.a.q.-.q.e."
};
