/* XPM */
static char *YXphbGVhX3BsYW50[] = {
/* columns rows colors chars-per-pixel */
"64 64 235 2 ",
"   c #3D383A",
".  c #3D2D2F",
"X  c #493A2E",
"o  c #4A3D32",
"O  c #443937",
"+  c #2B5B0F",
"@  c #245212",
"#  c #295316",
"$  c #2D5D14",
"%  c #2D561B",
"&  c #2E5C1C",
"*  c #325E1D",
"=  c #32571F",
"-  c #254C1E",
";  c #2F6115",
":  c #336413",
">  c #366B15",
",  c #35641C",
"<  c #39661D",
"1  c #36691D",
"2  c #3A6B1D",
"3  c #3A6F17",
"4  c #3C721D",
"5  c #3B791B",
"6  c #31680E",
"7  c #345D22",
"8  c #3B5C26",
"9  c #345C28",
"0  c #3D5F33",
"q  c #355224",
"w  c #356221",
"e  c #3B6524",
"r  c #3C6C24",
"t  c #3C632B",
"y  c #3E6B2B",
"u  c #376B20",
"i  c #3E7222",
"p  c #3E712A",
"a  c #3E7820",
"s  c #3C6231",
"d  c #40781B",
"f  c #406E17",
"g  c #56462B",
"h  c #435C27",
"j  c #4B423C",
"k  c #5D4E3D",
"l  c #53473A",
"z  c #405633",
"x  c #4A5D3A",
"c  c #455C37",
"v  c #565E3A",
"b  c #69553B",
"n  c #6E5731",
"m  c #436627",
"M  c #426B25",
"N  c #42642D",
"B  c #436B2C",
"V  c #4A6B2E",
"C  c #486529",
"Z  c #437224",
"A  c #447C24",
"S  c #487B26",
"D  c #44722C",
"F  c #49752D",
"G  c #46792D",
"H  c #4B7B2D",
"J  c #4A7626",
"K  c #436434",
"L  c #4C6534",
"P  c #446B32",
"I  c #4A6D34",
"U  c #4C653C",
"Y  c #466B3A",
"T  c #4B6C3C",
"R  c #466539",
"E  c #53643B",
"W  c #546B3D",
"Q  c #566B3A",
"!  c #467132",
"~  c #4A7334",
"^  c #4D7A34",
"/  c #4D733A",
"(  c #4E7A3A",
")  c #467831",
"_  c #527534",
"`  c #517D35",
"'  c #52753C",
"]  c #5A713D",
"[  c #537C3C",
"{  c #5A7D3E",
"}  c #517B2F",
"|  c #626A3D",
" . c #6F7E3C",
".. c #3F3C56",
"X. c #473C4C",
"o. c #4D4345",
"O. c #4C4549",
"+. c #564C43",
"@. c #5C4D4A",
"#. c #554A46",
"$. c #5C5144",
"%. c #5D524B",
"&. c #5A5A4A",
"*. c #5A4C53",
"=. c #584D5B",
"-. c #5C535A",
";. c #585454",
":. c #495541",
">. c #635543",
",. c #6A5943",
"<. c #62554D",
"1. c #635A4E",
"2. c #6A594C",
"3. c #665746",
"4. c #745E46",
"5. c #635552",
"6. c #645A54",
"7. c #6C5E54",
"8. c #655B5A",
"9. c #725F51",
"0. c #446242",
"q. c #4C6A48",
"w. c #546443",
"e. c #5B6444",
"r. c #5A6C42",
"t. c #5B654B",
"y. c #53694C",
"u. c #5C6B49",
"i. c #546846",
"p. c #4D7243",
"a. c #4F7842",
"s. c #557543",
"d. c #5A7444",
"f. c #567B43",
"g. c #5A7D45",
"h. c #55744B",
"j. c #5B754B",
"k. c #557A4A",
"l. c #5C7D4A",
"z. c #566853",
"x. c #567554",
"c. c #5C7D53",
"v. c #5D7A5B",
"b. c #5A7357",
"n. c #4E6B51",
"m. c #636D42",
"M. c #6E624D",
"N. c #626B4C",
"B. c #65654D",
"V. c #73634C",
"C. c #726140",
"Z. c #637D45",
"A. c #64724C",
"S. c #607D4C",
"D. c #6A7546",
"F. c #6B6455",
"G. c #6B635B",
"H. c #646B5C",
"J. c #656858",
"K. c #756C52",
"L. c #7A6A54",
"P. c #7B6B5D",
"I. c #746456",
"U. c #647353",
"Y. c #6D7351",
"T. c #637C52",
"R. c #6E7B5C",
"E. c #687C56",
"W. c #797958",
"Q. c #5F5C63",
"!. c #5E7464",
"~. c #656864",
"^. c #7A6E64",
"/. c #6B7363",
"(. c #687967",
"). c #797465",
"_. c #777271",
"`. c #8B7649",
"'. c #866D54",
"]. c #83735D",
"[. c #8A755C",
"{. c #867556",
"}. c #927D5E",
"|. c #806B4A",
" X c #867965",
".X c #8C7B64",
"XX c #887664",
"oX c #957965",
"OX c #4C842D",
"+X c #488121",
"@X c #52852C",
"#X c #4F8030",
"$X c #538234",
"%X c #55823C",
"&X c #59843D",
"*X c #5C8A3D",
"=X c #5A8A38",
"-X c #608E3B",
";X c #568142",
":X c #5B8343",
">X c #5D8943",
",X c #5D824B",
"<X c #5E8A4A",
"1X c #5F8453",
"2X c #5C8355",
"3X c #628544",
"4X c #628D44",
"5X c #6A8D44",
"6X c #61844C",
"7X c #638B4A",
"8X c #698D4A",
"9X c #669144",
"0X c #689445",
"qX c #69924B",
"wX c #638352",
"eX c #6B8352",
"rX c #658A52",
"tX c #698C53",
"yX c #64855B",
"uX c #698C5B",
"iX c #6A865C",
"pX c #6B9154",
"aX c #6D905C",
"sX c #6A8461",
"dX c #6C8B62",
"fX c #668665",
"gX c #6E9162",
"hX c #7D937B",
"jX c #88846D",
"kX c #978367",
"lX c #8D8374",
"zX c #A5A073",
"xX c #908C87",
"cX c None",
"vX c black",
/* pixels */
"W.vXvXvXE.[ T _ T d.r.A.] f.` ^ s.s.l.l.I e ! %X&X$X$X9X0XT.vXs.k.vXvXvXvXf.( [ ;X:XwXwXf.:X[ l.6X1X,X,Xf.r H S Z Z D ` &X7X4XR.",
"R.7XwX:X-X_ V ] | e.l.S.f.2 , B ~ B k.l.' / D p =X^ :XU ~.vXv.e y T / vXvX6.a.f.~ y y ' E.' f.g.l.wX,X,X( T H i i i r 1 C ' g.N.",
"5Xe.A.[ -XD.| @XZ.d.6Xs., y ' [ ' / f.f.f.f.~ p G f.vX~ [ vXk.* e I B [ c.6.vXvX~ , N ! m.N.i./ p.l.T.l.f.y ! vXvXvXx.T _ ] B ` ",
"0Xg._ [ -X5X0XY.m.A.[ ~ [ / &X6Xg.N ' g.g.f.f.&X` Z k.7X*X%XT * t [ I / g.(.5.vXw B / ~ f.( ~ c E ' f.l.,X/ Y vXvXvXvXvXvX:XS [ ",
"&XH ;XJ m J $X-X! E f.,X[ ,X>X*X[ t ' s.f.f.( <X7X:X_ l.4Xc.t & e P [ D &X<X5.q.^ ;X( ( ^ r D ' t <.L / l.g./ vXvXvXvXvX~ [ } :X",
"` ` =XA Z 3 f J M y I f.f.l.:X:X4Xz U / T ~ p.gX6X' ' l.g.e @ # % K y f.^ :X5.<X:Xa.;X( a.[ f.f.] L c e.r.g.eXQ.vXvXvXdXG ^ ' :X",
"&X0X4XA 5 2 G [ P I ' :Xl.,X;X%X_ v R I / k.rX;X[ f.s.l.l.P & # m t I ! f.^ x.^ ( ;Xa.f.f./ ~ r P :X` Z Y vXJ.6.vXM.vXaXZ H [ :X",
"0X6XsXc.R / ' f./ / f.f.S.,Xf.` m [ / / 7X&X;X&X<XqXwXl.T vXt e e e y ( [ [ %X( ( ~ / ! y r w t I ' P D T b.R.t.~.6.@.vX< M g.7X",
"9X6X<X,XiXT p.^ w I [ g.l.{ [ ` [ / I :X:X,X[ <X<X<X<X[ g.vXvX* * , ~ / [ j.! y e r y r r u N E d.~ ;X>X%X^ ( %X~ t.%.5.e V 7X4X",
"[ f.T 7 7X:X<XvXs ! [ g.[ [ %X&Xg.l.,X,X,X,X1X[ ~ p A D ( ;XpXq.9 7 B s.1.vXvXc.p.P t p ) y ^ :X) D G ^ ( [ [ / I W u.&.U s.-X_ ",
"f./ B e f.qX;X1XY r [ f.` Z m W T.S.l.l.,X,X( ^ ) A &X[ / ^ ` uXvX0.Y.6.vXvX~ y ~ 6X,Xs.( p a ) D D ! ( / ~ D u B 7X7X,X&.8.] W ",
"( I P / %X;X9XtX' P g.F 2 m t.@.[ w ; e ~ ;X( ) ^ [ :Xk.( ~ u 2 h.vXG.5.vXB : B ~ 1Xf.( ;X%X;X:X( ) ~ D p 2 ; 1 ^ :X<X7Xt.B.] s.",
"f.e / f.g.=X4XrXv.l.g.T m.U.(.2X6XyXp.P s , ) f.D G ` ,Xf./ y D ` c.5.vXx.w , ! ' f.l.l.<X,X>X%XG u u p u e y a.;X[ :X<XvXz h f.",
"f./ / [ g.*X4X>X%XD.vXvXu.6X4X*X>X>X1XvXvXc.<XT.2 1 ~ [ f.( m G ^ T.5.Y + e I I ,Xl.l.,X[ f.uXrXrXp y F y e y / ( ;X;XuXH u +X:X",
"( , F [ Z.7X$X^ ,Xu.[ ` 7X<X4X7X4X<XqXpXvXvXvXvXZ , r ( l.[ / / F t.%.9 * y s.s.T.l.,X,Xa.f./ s vXvXk.c./ p y / a.[ ;Xa.p 1 $X=X",
"h.I 1 ~ g.&Xd f.U.[ 7X6X<X7X<X7X7X7X>X*XwXk.( a.s.< , B ' l.f.( Z K &.7 I ] l.l.1Xl.f.k.;Xf.2XvXvXvXvXvX;Xp p p f.f.( [ vXt } &X",
"u.iXt y g.` p u.l.6XZ.l.g.:X;X%X%XS a &Xk.7X; r P s w * B g.g.:X[ T.:.s.g.l.,Xl.l.,X;X[ :XgXvXvXvXvXvXvXvX) w p ' ;X! P vXs.^ A.",
"D.yXvXP :X` N.L B r 2 i Z Z ` *X&XOXf.D y H 6 : F - vXe e s.g.g.I &.M.eX6X6X6X,X<XrX<X;Xp.vXvXvXvXwXgX2XvXvXy.s D l.[ N w./ f.:X",
"m.wXvX~././.' i 1 t K e t e 8 r %X:X/ t e ~ > : i $ = vXC I f.&XJ.vXvXvXk.E d.:X%X( %X&X( vXvXvXyX%X;X^ ( yXvXx.P [ / x T f.wXT.",
"1XY.*.%.*.-.fXv.!.vXvXhXvX0 t./ [ ! , 7 e t B 3 Z Z > s vXU b.6.vXvXvXvX1.@.6.2.vXvX<XaXvXvXvXvXa.D ( ( ) ) k.vXvXw.E i.s.S.yX<X",
"7XY.8.<.O.vX1XrX<X:XtX3XyXvXb.% @ $ % e ~ ! M > J &X .T.vXvX6.1.5.K F I l.l.y.6.G.vXvXvXvXvXvXvX! p ( ^ ^ ( 7XvXvXx E s.l.wX,X<X",
"<XsX5.<.c D OX$X~ :X,X^ >XdXg.7 @ # 8 ~ B P [ > B E.4XqXvXG.vXx.w , B ` &X:Xg.6X6.6.vXvXvXvXvXvX~ p ) / %X;X>XuXvXN./ l.wX,X6X6X",
"k.b.i.t.: i 5 4 ;X,X[ ( [ 3X:Xw t 7 t ~ / _ ' P L [ 8XeX7.8.! w < / F ` &X:X:X-X6XW.H.C y / v.f.vXe p / ( ;X) c.G.k.:X,Xf./ T D ",
"H > C %.( 5 A 5 %Xg./ ` [ 6Xe 7 w t y ~ f.:X&XN B _ 7X/.6.c.M r ~ F I [ [ 3X:X%X[ d./.f.p > ; ; r t ; G ( ( H !.F.eXg.~ p s T ~ ",
"6 $ C &.I J A OX%X[ ! D H g.N * e B B ~ ( %Xg.[ m M K L ~ d.{ _ ^ F [ [ { 3X&X[ F j./.7X6XZ.[ ^ ^ ( , u / [ g.6.1.vXh.b.f.vXd S ",
": 3 ] z t , ^ 8X%X/ p e u ' Y w F / f.f.H Z ] [ < m e r ~ ^ { &Xr B y F %X3X4X@XH v.6.{ 6X7X6X,X:X%XOXu m [ i.<.vXvXvXvXvXI 3 i ",
"M 2 8 O.0 * ! g.f.B P G ` [ Q A.' [ f.d.d.r. .] / ] I ] _ s.[ { vXU w , Z [ 7X:X<XvX5.t.[ >X,X8X7X7X:XS i ;.=.%.F.vXvXvXvXvX2 Z ",
"Z Z C X.e e ' l.f.~ ( ^ ^ Q N.A.j.j.d.< I f.f.f.f.f.k.l.l.l.g.d.vXy.P P D J *X4XuXvX).H.vXg.:X4X<X7X7X7X` e.=.*.^._._.vXvXT 2 H ",
"*XJ c X.B I g.g.f.~ D d.r.e e I ] f.' Z.8X7X4X>Xg.f.g.f.f.l.g.g.vXvXR N [ 7X>XpXvX~ ' [ U vXrX&X>X>X;X7X$.z.0 J *X6Xg.vXvXY r [ ",
"4X-XvXn.m s.,X;X[ F K vXz.e : w r : w =X*X0XqXtXA.j.{ g.:Xg.3X3X7XvX0.8 c.uXvXvXp.r [ { D K w 3 2 y.%.X.&.m : 2 M Z Z %XvXI _ 3X",
"8XvXdXl.s.s.g.Q Q ] e.z = * w , e ! ~ / 6X' vXvXvX7.dX` { 5X4X7X4XvXW.<.vXvXvXvXw F [ g.^ i G @Xd q c w.3X6Xg._ ' ^ } ` F I :XqX",
" XxXhXW.Y.U.j.A.S.A.d.s.' P I ' P ~ g.6X7XT.0.vXvX6.yXM Z =X*X` 0XzXP.-.vXvXvXs B / g.l.d.-X@X` g.L Q h C *X8X7X&X:Xg.{ J _ U.R.",
"5.uXf.~ [ A.T.l.7X,X6X:Xl.l.l.h.,Xl.f.f.f.[ e vXvXvXc.J vXvXvX&X=.{.5.vXrX[ T _ _ d.m.A.r.f.[ / f.' d.,X,X&XvXqX=X` $X4X9XvXvXF.",
"vXF e < : $ D [ :Xk./ :XS.,Xl.,XwXT.1XyXl.<Xf.6XvXvXvXvXvXvXvX>.5.P.-.vX*X%XV d.m.r.g.l.g.4 < D ~ B ~ U l.f.vXvX*X` :XT vXvXvXvX",
"vXvX~ F ~ ~ D ~ g.vXi./ 7XwXl.,Xs.,Xk.;X<X,X{ 7Xl vXvXvXvXvXK.P.O.vXvXvXvX3.| ` D.g.l.f.w e F [ [ ' / B 8 p.vXvXvX%XvXvXvXvXvXvX",
"vXvX^ _ B F ^ [ l.f.y y >X:X7Xk.,Xf.;X/ [ 7X:X>X>.  vXvXvXvX>.5.vXvXvXvXvXvXN k lXA.f.D [ [ g.S.g.[ ' / ~ [ vXvXvXvXvXvXvXvXvXvX",
"vXvXD ' _ [ %X>X[ r.t * e p >X<X/ <Xf.,X[ 7X7XF [.o vXvXvXK.^.o.vXvXvXvXvX*.X 3.#.vXA.:X%X&X3X>X&X&X>X4X>X;X7XvXvXvXvXvXvXvXvXvX",
"vXvX2 D [ :X:X3X*X6XvXh.K w e ( y [ <X>X*X>XJ vX[.^.vXvXvX3.1.vXvXvXvXvXO.5.4.XXvXvXvXA./ ^ S >X4X4X4X[ dXvXvXvXvXvXvXvXvXvXvXvX",
"vXvX, B { &X:X{ *X4XvXvXvXvX% # ! 6X^ Z y vXvXvXL.'.vXvXV.P.O.vXvXvXvXM.vXO [.].vXvXvXvXvX6./ [ 6X:Xl.[ vXvXvXvXvXvXvXvXvXvXvXvX",
"vXvXP Z >X4X` ` ` l.vXvXvXvXvXvXvXvXvXvXvXvXvXvXF.kX$.vX2.@.vXvXvXvXvX3.vXj kX@.vXvXvXvXvXvXvXvXvXvXvXvXvXvXvXvXvXvXvXvXvXvXvXvX",
"vXvXvX/ 4X>X$X$X[ b.vXvXvXvXvXvXvXvXvXvXvXvXvXvXvX.Xb vXP.o.vX2.vXvX#.. vXX kXvXvXvXvXvXvXvXvXvXvXvXvXvXvXvXvXvXvXvXvXvXvXvXvXvX",
"vXvXvXvXhXyXsX(.vXvXvXvXvXvXvXvXvXvXvXvXvXvXvXvXvXvX}.l 3.I.vX2.vXvXP.O 3.}.vXvXvXvXvXvXvXvXvXvXvXvXvXvXvXvXvXvXvXvXvXvXvXvXvXvX",
"vXvXvXvXvXvXvXvXvXvXvXvXvXvXvXvXvXvXvXvXvXvXvXvXvXvXoXb @.2.vX'.'.vX7.5.L.kXvXvXvXvXvXvXvXvXvXvXvXvXvXvXvXvXvXvXvXvXvXvXvXvXvXvX",
"vXvXvXvXvXvXvXvXvXvXvXvXvXvXvXvXvXvXvXvXvXvXvXvXvXvXvXn O 2.%.4.vXoXoX6.n vXvXvXvXvXvXvXvXvXvXvXvXvXvXvXvXvXvXvXvXvXvXvXvXvXvXvX",
"vXvXvXvXvXvXvXvXvXvXvXvXvXvXvXvXvXvXvXvXvXvXvXvXvXvXvX{.g O 9.[.vX9.j g L.vXvXvXvXvXvXvXvXvXvXvXvXvXvXvXvXvXvXvXvXvXvXvXvXvXvXvX",
"vXvXvXvXvXvXvXvXvXvXvXvXvXvXvXvXvXvXvXvXvXvXvXvXvXvXvX X{.@.XXvXvXI.  .X].vXvXvXvXvXvXvXvXvXvXvXvXvXvXvXvXvXvXvXvXvXvXvXvXvXvXvX",
"vXvXvXvXvXvXvXvXvXvXvXvXvXvXvXvXvXvXvXvXvXvXvXvXvXvXvXvXkX+.^.vXvXF.k .XvXvXvXvXvXvXvXvXvXvXvXvXvXvXvXvXvXvXvXvXvXvXvXvXvXvXvXvX",
"vXvXvXvXvXvXvXvXvXvXvXvXvXvXvXvXvXvXvXvXvXvXvXvXvXvXvXvXvXW.o.XXoXo..XvXvXvXvXvXvXvXvXvXvXvXvXvXvXvXvXvXvXvXvXvXvXvXvXvXvXvXvXvX",
"vXvXvXvXvXvXvXvXvXvXvXvXvXvXvXvXvXvXvXvXvXvXvXvXvXvXvXvXF.,.l b b g V.G.vXvXvXvXvXvXvXvXvXvXvXvXvXvXvXvXvXvXvXvXvXvXvXvXvXvXvXvX",
"vXvXvXvXvXvXvXvXvXvXvXvXvXvXvXvXvXvXvXvXvXvXvXvXvXvXvXvXvX2.`.o.K.`.M.vXvXvXvXvXvXvXvXvXvXvXvXvXvXvXvXvXvXvXvXvXvXvXvXvXvXvXvXvX",
"vXvXvXvXvXvXvXvXvXvXvXvXvXvXvXvXvXvXvXvXvXvXvXvXvXvXvXvXvXJ.{.1.1.C.+.vXvXvXvXvXvXvXvXvXvXvXvXvXvXvXvXvXvXvXvXvXvXvXvXvXvXvXvXvX",
"vXvXvXvXvXvXvXvXvXvXvXvXvXvXvXvXvXvXvXvXvXvXvXvXvXvXvXvXvXvXV.F.).k vXvXvXvXvXvXvXvXvXvXvXvXvXvXvXvXvXvXvXvXvXvXvXvXvXvXvXvXvXvX",
"vXvXvXvXvXvXvXvXvXvXvXvXvXvXvXvXvXvXvXvXvXvXvXvXvXvXvXvXvXvX X#.l  XvXvXvXvXvXvXvXvXvXvXvXvXvXvXvXvXvXvXvXvXvXvXvXvXvXvXvXvXvXvX",
"vXvXvXvXvXvXvXvXvXvXvXvXvXvXvXvXvXvXvXvXvXvXvXvXvXvXvXvXvXvXXX&.1.].vXvXvXvXvXvXvXvXvXvXvXvXvXvXvXvXvXvXvXvXvXvXvXvXvXvXvXvXvXvX",
"vXvXvXvXvXvXvXvXvXvXvXvXvXvXvXvXvXvXvXvXvXvXvXvXvXvXvXvXvXvXP.I.<..XvXvXvXvXvXvXvXvXvXvXvXvXvXvXvXvXvXvXvXvXvXvXvXvXvXvXvXvXvXvX",
"vXvXvXvXvXvXvXvXvXvXvXvXvXvXvXvXvXvXvXvXvXvXvXvXvXvXvXvXvXvX,.b >.,.vXvXvXvXvXvXvXvXvXvXvXvXvXvXvXvXvXvXvXvXvXvXvXvXvXvXvXvXvXvX",
"vXvXvXvXvXvXvXvXvXvXvXvXvXvXvXvXvXvXvXvXvXvXvXvXvXvXvXvXvXvXL.>.F.,.vXvXvXvXvXvXvXvXvXvXvXvXvXvXvXvXvXvXvXvXvXvXvXvXvXvXvXvXvXvX",
"vXvXvXvXvXvXvXvXvXvXvXvXvXvXvXvXvXvXvXvXvXvXvXvXvXvXvXvXvXvX9.2.P.V.vXvXvXvXvXvXvXvXvXvXvXvXvXvXvXvXvXvXvXvXvXvXvXvXvXvXvXvXvXvX",
"vXvXvXvXvXvXvXvXvXvXvXvXvXvXvXvXvXvXvXvXvXvXvXvXvXvXvXvXvXvXL.3.7.V.vXvXvXvXvXvXvXvXvXvXvXvXvXvXvXvXvXvXvXvXvXvXvXvXvXvXvXvXvXvX",
"vXvXvXvXvXvXvXvXvXvXvXvXvXvXvXvXvXvXvXvXvXvXvXvXvXvXvXvXvXvX.X$.k o V.vXvXvXvXvXvXvXvXvXvXvXvXvXvXvXvXvXvXvXvXvXvXvXvXvXvXvXvXvX",
"vXvXvXvXvXvXvXvXvXvXvXvXvXvXvXvXvXvXvXvXvXvXvXvXvXvXvXvXvXvXjX$.o l  XvXvXvXvXvXvXvXvXvXvXvXvXvXvXvXvXvXvXvXvXvXvXvXvXvXvXvXvXvX",
"vXvXvXvXvXvXvXvXvXvXvXvXvXvXvXvXvXvXvXvXvXvXvXvXvXvXvXvXvX.X$.k +.+..XvXvXvXvXvXvXvXvXvXvXvXvXvXvXvXvXvXvXvXvXvXvXvXvXvXvXvXvXvX",
"vXvXvXvXvXvXvXvXvXvXvXvXvXvXvXvXvXvXvXvXvXvXvXvXvXvXvXvXvXXX+.+.+.$.[.vXvXvXvXvXvXvXvXvXvXvXvXvXvXvXvXvXvXvXvXvXvXvXvXvXvXvXvXvX",
"vXvXvXvXvXvXvXvXvXvXvXvXvXvXvXvXvXvXvXvXvXvXvXvXvXvXvXvXvX[.5.#.#.6..XvXvXvXvXvXvXvXvXvXvXvXvXvXvXvXvXvXvXvXvXvXvXvXvXvXvXvXvXvX"
};
