/* XPM */
static char *f29494c9b408453cd5896d1f5ccd763baQbtnY94BTakQmag[] = {
/* columns rows colors chars-per-pixel */
"64 64 246 2 ",
"   c None",
".  c #3A3213",
"X  c #4C3619",
"o  c #453C1B",
"O  c #4D3B1C",
"+  c #473616",
"@  c #563D1A",
"#  c #543C19",
"$  c #4A2F0F",
"%  c #523D21",
"&  c #53421D",
"*  c #5B431D",
"=  c #4C421F",
"-  c #64471C",
";  c #795C1D",
":  c #6F551F",
">  c #7C641E",
",  c #544222",
"<  c #5A4424",
"1  c #5C4827",
"2  c #534427",
"3  c #644924",
"4  c #6D5726",
"5  c #765B28",
"6  c #5D732F",
"7  c #7C6D2C",
"8  c #796327",
"9  c #63722D",
"0  c #6C752B",
"q  c #71722B",
"w  c #7D732E",
"e  c #73782A",
"r  c #7C6D34",
"t  c #7A6B38",
"y  c #637735",
"u  c #6B7535",
"i  c #6A7A34",
"p  c #6E793A",
"a  c #637835",
"s  c #757435",
"d  c #7C7234",
"f  c #7C733A",
"g  c #737C3C",
"h  c #7C7B3B",
"j  c #767A36",
"k  c #6D6327",
"l  c #7D7B41",
"z  c #797840",
"x  c #836B2C",
"c  c #866C26",
"v  c #8C752C",
"b  c #8C7B2C",
"n  c #86762B",
"m  c #937C2C",
"M  c #97792A",
"N  c #836C34",
"B  c #846D39",
"V  c #896C34",
"C  c #847234",
"Z  c #8A7433",
"A  c #857A34",
"S  c #8C7C33",
"D  c #83743B",
"F  c #8A733B",
"G  c #837B3C",
"H  c #8C7A3C",
"J  c #927D32",
"K  c #947C3C",
"L  c #987C39",
"P  c #926A25",
"I  c #946823",
"U  c #857542",
"Y  c #8B7542",
"T  c #847B43",
"R  c #8C7A44",
"E  c #8C7D4B",
"W  c #8E754A",
"Q  c #937C44",
"!  c #937D4B",
"~  c #9A7E45",
"^  c #977F50",
"/  c #7C813C",
"(  c #77853E",
")  c #6D8239",
"_  c #6E9E45",
"`  c #6B9F45",
"'  c #729F46",
"]  c #739E4B",
"[  c #7C9E4B",
"{  c #7A954B",
"}  c #6EA045",
"|  c #6EA14B",
" . c #74A14B",
".. c #7BA24B",
"X. c #75A146",
"o. c #7CA353",
"O. c #7DAC5B",
"+. c #77A854",
"@. c #7DAF63",
"#. c #799F60",
"$. c #8D822D",
"%. c #96852D",
"&. c #9A992C",
"*. c #8E8333",
"=. c #88863B",
"-. c #928233",
";. c #94823C",
":. c #9A833C",
">. c #978B37",
",. c #999637",
"<. c #A2883B",
"1. c #A49530",
"2. c #98A22C",
"3. c #94AC3F",
"4. c #A3A734",
"5. c #8C8343",
"6. c #8D834B",
"7. c #888945",
"8. c #958344",
"9. c #9B8444",
"0. c #948C43",
"q. c #9C8B44",
"w. c #94824B",
"e. c #9B844D",
"r. c #958B4B",
"t. c #9C8A4C",
"y. c #829E4E",
"u. c #899F4F",
"i. c #9C9B44",
"p. c #9C934C",
"a. c #999747",
"s. c #9B8452",
"d. c #988B52",
"f. c #859E52",
"g. c #8A9D54",
"h. c #889B5A",
"j. c #939C54",
"k. c #9D955B",
"l. c #939B5B",
"z. c #9B9D5C",
"x. c #979857",
"c. c #8F8A55",
"v. c #A38B44",
"b. c #A38B4B",
"n. c #A28644",
"m. c #A3944B",
"M. c #A49849",
"N. c #A48D53",
"B. c #A49453",
"V. c #A49C5C",
"C. c #A99B59",
"Z. c #B19C56",
"A. c #83A14E",
"S. c #9CA445",
"D. c #9DAA45",
"F. c #9CA54A",
"G. c #9DAA4A",
"H. c #96A642",
"J. c #84A353",
"K. c #8CA354",
"L. c #84A55A",
"P. c #8CA55C",
"I. c #8CAB5C",
"U. c #83AA59",
"Y. c #94A256",
"T. c #94A35C",
"R. c #9CA35C",
"E. c #93AA5D",
"W. c #9AAA5A",
"Q. c #9EB14A",
"!. c #A3A44C",
"~. c #A3AB4C",
"^. c #A3A947",
"/. c #A3A453",
"(. c #A5AB53",
"). c #A4A45C",
"_. c #ABA45C",
"`. c #A9A957",
"'. c #B2A85A",
"]. c #B5BB5D",
"[. c #A2B04F",
"{. c #9A9B62",
"}. c #879A61",
"|. c #A39D64",
" X c #8BAB63",
".X c #9CA563",
"XX c #93AB63",
"oX c #9CAC63",
"OX c #9BAC6A",
"+X c #98A669",
"@X c #8BB265",
"#X c #85B164",
"$X c #9BB26D",
"%X c #94B369",
"&X c #9AB875",
"*X c #97B273",
"=X c #A5A463",
"-X c #ABA564",
";X c #ACAB65",
":X c #A5A56A",
">X c #A4AC6B",
",X c #ABAB6B",
"<X c #A6A868",
"1X c #B3AD6B",
"2X c #B4A966",
"3X c #A7B26A",
"4X c #BCBD6D",
"5X c #B6BA67",
"6X c #A4AC73",
"7X c #ABAB74",
"8X c #A9A977",
"9X c #B2AE73",
"0X c #B6AC75",
"qX c #A5B474",
"wX c #ABB474",
"eX c #ADBB7C",
"rX c #A9B678",
"tX c #B3B474",
"yX c #B4B47C",
"uX c #BAB47A",
"iX c #B3BA7C",
"pX c #B9B876",
"aX c #C4BC78",
"sX c #BBC95C",
"dX c #B7C85A",
"fX c #BBC564",
"gX c #BCCA64",
"hX c #BDC46C",
"jX c #B7C567",
"kX c #BCC475",
"lX c #AAC460",
"zX c #C1C86A",
"xX c #C3C473",
"cX c #C4C779",
"vX c #C2D070",
"bX c #B5BC84",
"nX c #BABB83",
"mX c #ADB98A",
"MX c #A59A83",
"NX c #C6BC89",
"BX c #D7BA86",
"VX c #BBC589",
"CX c #ABC182",
"ZX c #C8C488",
"AX c #C8C894",
"SX c #CDC98D",
/* pixels */
"                                                                                                                                ",
"                                                                                                                                ",
"                                                                                                                                ",
"                                                                                                                                ",
"                                                                                                                                ",
"                                                                                                                                ",
"                                                                                                                                ",
"                                                                                                                                ",
"                                                                                                                                ",
"                                                                                                                                ",
"                                                                                                                                ",
"                                                                                                                                ",
"                                                                                                                                ",
"                                                                                                                                ",
"                                                                                                                                ",
"                                                    7.7.r.                                                                      ",
"                      ! L.                        7.,.    xXhX                                      cXq.                        ",
"        c.wX&X      c.  Y           r.  mX            7.  mX          E             mX  w.          lXkX=.      1X%Xc.          ",
"        ;Xm N.x.    c.  c.c.>Xf.  r.  7.8XOXJ.        5X  <XB.      1X'.        oX0X7X3XiXx.  {.jX Xb.SXmXjX  d.9.C fX          ",
"    pXhX,X;.V 5.V.0.3XnX*Xh.+XL.Q bX  >.8XwXY V.+Xk.<.e.4XbXyX X  Q D b.:.U gXd.  7XfX0X8XH.8.+XlX).dXzX6XlX#.7.H N   6XkX      ",
"  zXcXfXaXe.*.o.`.R =XB.>XL.8X  ! w.;X,.    {.hX  4XzXAX0X>X).%XtXF B x _.tX  ~ :XVX4X!.C 9.! 5XsX3X-X(.OX9.%XB 7.!   >XzXnX    ",
"0XfXaXfXiXU.  g.Y R uX7XqXP.T.g.,XbXuX9..Xl.T.zX`.U zXZX,XxXuXxX_.! N.b.5 /.9X_.L =XhXr.i.-XQ gXhXD.'.4XT.dX~ 9.fX`.9.<XW =X8X  ",
"xXxXaXfXZX..  8.`._.=XiXE.F ;.e.R s.Y C.F..X,XgXm.4XcXnXAX$X;.! _.].R V.p.B z.:X,X:X9.a.-XyX<XM.C.^.:.2X9.M.D./.gXSXB.>X(.l.<X  ",
"~ b.n.jX0XU.8.f.~.z.bXnXoX[ R o.tXU.7XL.T.T.uX'.zXtXkXxX1XD B.XX:.].s.pX1XF R.AXV.!.].eXtX>XeX+XQ v.~.~.A.! j./.D Q q.T.(.V.=XcX",
"b.xXv.0X=Xp.w.J.,XR.wX$XxXO.;. .l.B.OX XW.oXqXgXyX0XfX<.zXoXH T.>.f /.zXgXY.3.G.:XR.zXrX.XE R 8.Q F ~ dXXXqX X8.M.  C Z F H ! N.",
"5X4Xn.gXtX*Xz.N ^.*XT T.J...o.| eX Xa.T.T.!.<XfXVXsXv.`.v.Y.4XA 9.k /.uX;X$XS.R .XA.G.t.G..Xk.S _.F Q 2XL.oX9.  G.ZXfX$X  *.4 V ",
"  VX0X4X,X%XT 8.oXJ.j.D ' ' @.^ C L.=XZX%XW.eXuXjX`.gXzX`.:.Z.!.g !.z.=XM.n.XXp q. .0XI.wXoX! =.Y.w.5 (.@XJ.J.G U bX,XvX      4 ",
"  CXSXZXcXo.t ] iXo.jX&X] ' ` 8 6.K.rXiX5XqX>X'.qX1XzXNXq.i.^.^.6.tX=Xz.F.+.T.N R } 2X[ 1XE. ...Y.K.Y.5XX.J.3XT.s P.VXSX        ",
"    4XiX.XF.x.+.ZXX.9 ] o._ 6.i.J. XOX%X%X$XqX2XW.tXwXkX^.S.6.J.,XsXT.O.H.F ~.p K.^.V...pXC.+.^.A.!.iXgXh.l.eXU.f.f T.@XbX      ",
"      J.a.a.f X.J.N 8 ^ y +. .X...T.v.K.h wXj.%X#XZXo.eXl S.(...E.%X$XX.z.g t.g |.[ ).O.E.j.P.h ..J.K.t.b S X.P.f t e.[ MX      ",
"      @Xg.s P.eX  F K.U.J.O. .P.w.^.!.z ;.R.g ` | J.K.3X=XS W...A.zXXXK.W.H.n.i.Q J (.p qX~.(.! (.gX7Xa. .*.N cXo.D g.7X        ",
"      rXz.q.s.(.  ~.rX&X@XwXo.uX~.q.l 5.q.uXI.^.w.q.:.P.z.| W.t.M.A.iX_.Y.U T.  F.-.U h t./.'.e.fXzXD.uX5X(.*.R.! D J.hX        ",
"        (.pXK.5XV./.+XOX@X1XO.v.oXzX1XdX;X/.w.a.o.L 9XD q.} qX..oX%XiXb.R H :.v.,.5X=X5.F b.!.t.jX9.d.gXdX.X_.1XR.cXT.          ",
"        hXhXE.q.T.2Xg.Q | 6X .B.oX5X3XwXiX$.a.:.f.<XzXV.M.8.XXJ.w.Q R.>Xa.p.v.9X;.].B.B.H 9.t.zXr.Z.,XG /.,X-X(.aX4XaX          ",
"        F `.XX1XE._./.i.} pX..) K.gXCX=XR.j w.v.! 5.q.U >X%X&X@Xh.8.qXwX8.q.2XV.S a.h m.F D.dXgX9.(.g.a./.^.gXtXpX'.-.          ",
"        fX9.F ZXI.).;.a...SXJ.9 J.(.h =X3X`.p.r.F./.dXB.D.H 3.J.CX7X=XVXCX).zX^.A m.W.l j.G.;XG.XXSX.XK s.^.zXiXt.Y aX          ",
"        9.<._.fXQ S.:.w...sXiX7.e.9.v i XXg.L a.l.0Xq.NX5X;Xv.A.p..XnX~.AXuXtX^.( sXJ.= H.1 jXG.;.aX=XR /.e.! ,X_.v.9.          ",
"        C.v.gXv.-XK $.;Xw.Z.ZXG L fXn G T.{.5.F.Q V.q.NXt.g.k.#X^.h.nX8Xr.3Xx.d z !.h |.*.*.gX-.iX-Xu ;X$.Q ].Q SXn./.          ",
"          v.].t.N ~ q.AX-.^.cXb.T.nXo S.k.*.o.G ).E.< z.ZXU.;. .E.p.=XwXO.OXk.2 T G T 0.n R ~.*.aX~.s VXU Q $.] 1Xn.            ",
"          xX  hX|.7X9.7X-.8.gXAXgX~.-.L H f.P.*.2XP.aXJ.5XL.g S B. .P.z.` hXp < a., # O ;.gX~.hXxXp F 0Xt.4XG.#X8XqX            ",
"            (.xX=XbXyXbXbXeXdXaX:.(.6Xy.<XK.:.wXM.@.hXU 1Xd.5 % < H u ^.9 J.U.2 A a.3 =.i hXi zXgXuX}.5XiXtX7XO.rXo.  OXH       ",
"          F 3 V %.^.7XiXL XXnXwXtX:X:. X;X! -.s.! [ yX+._.5.f *.k 9.R.Z.g T  .o.a !.rXh ( sX7.pXtX0Xk.eXg *..X#X8X] cX+XD :.    ",
"            b ~ 8.=X:X,X! z.{.l S.V.$.D.J 5 Q < 1 ;.9.w.yXA.S R 3 @ $.L X...7.O.a H +.=XJ.'.J T {.^.u <X5 + Y f t v r .X.XV.    ",
"            $.0.8.(.:XiXs.-.!.l.t.6.x U.-.8 t.>.9.S.d 9.i ..P.5.s < - m x R T J.a t.B.qX$X=.y '.t.a.g rXm J N f N f x t G.:.    ",
"              5.0.).i.XXJ X.rX' E l.>Xt.a.H.*.q.H B.c n j 9.g g.( f f O -...5.w.a t., w.kXS E /.yXJ.s oXq.S.w ;.X C *.%.z {.H   ",
"              8.:.y.F XXQ ` 0.;.|.%XkX@.F.l ~.jXw.xX7.b w J Q w.`.w V < 5 * 6.=XC 8.q ;.I.>.h.K R ..8.I.~ b b ~ - D w $.@ 9.9.  ",
"              ;.4.c.M L.!.` 8X@.(. XeXo.rXo.s D.:.j jX].w q.R .XdXw F N 3 J !.m.x q.e e.V.7  X2X+X] F.o.s.1 n <.d D D b @ 2 w.  ",
"              s <.E M XXV.] 3X+.V.E q.h j ` F.A 7.j dX;XeX;.S.8.dXx w %.x 5 V Q V q.d J.r.s B.,X+X_ o. .T.A 5 F d C w.v !.;.U J ",
"              / q h ;X6XtX|.>.1 -.d.7 ^.=.s G.r.7.^.[.h Y.:X9.P.3Xc 9 - - u 7 5.5 l A U.E s.S * C  .o.+.D B p.r.).A.p.7.sXJ :.L ",
"              j j dX7X7X$.- A *.8.).e `.s :X6 (.dXM.l i.J.z.J.[ gX7 9 & - V V t.8 1 , U.C f.K a.x + 1 o.X F u ..].R '.    <.    ",
"            Z q =.U u -XA K t L.H.-X%XpXXXeXuXhXgXcXfXNX7X,X] [ qXe & + @ * x h 2 4 C I.s ;Xj.P.B f H y.9 e.i J = v.BXD mX      ",
"            R C.iX9Xr.C.h.P.2XpXmX.X:XVX%XM.jX5XhXjXhXhXL.! n.j.T.%.P > M 3 b t.o X 8.J.0XP.kXbX{.J.W.M I <.9 <.O =XK           ",
"            wX8X{.bX#X:X*XZXK.f P.T.h F.F.F.1X5X[.hXxXe.a.b J Q E.3 5 &.&.O 3 G o H K.n.Q ,XP.Y {.&X`.m &.n.F >.c Q t.          ",
"            8XbX] +X#X.XD g w.f E f *.*.r B r ^ 1XtXa.;XU d 7 ^.M.d 5 &.L 7.& G , H ' V.D Y R F s.E (.x 1.<.9 <.*.K B.          ",
"        v.:X:XB < t f Y 7 A 5.j N K.p =.j x 5 7 4 f Y ;.R 3XS.gXf f 4 }.:.+XK f.O N A.v.! R.F 8.e.b P.A &.v %.q.5 XXb.          ",
"        9.t.f 5 r N d B x *.r.$.3 A.7 =.7.V 3 *.o S @ A w.6.H.=.A 7.f XXrXF.&XJ. .v ..M.-.y.b <.^.J ' A &.M 8 5.$ 5.            ",
"      e R.D + v r 8 ~ m x h / v 4 h q -X7.v J T -Xr N d C # F * n O -.1 S E OX6X_.C ^._ w w.m v a.w.' e 1.-.+ ! S 0.            ",
"      a R ; 4 7 d n j v J 9 ` s B z o.wXo.3 , K l.6XR.v r c : 5 A f r - @ k @ D @Xp f.+.+X! C R _ 0 [ ; 4.M k N.%.8.            ",
"    .Xw.A : c s d r G 7 H p ' o.eXh.w.: ) Y @ A s zX>X# D q * ; H K.m.c J 2.Q B z z B.5 d.h.%XP.' p [ v 2.: # Q O K             ",
"    R ! B ( v 9 d f Z S < ..E ] 9.W U x J.{ @ B 1 s.R , 4 0 @ ; H G 5 &.L J =.5 E t.).%.U Y Q l.T _ ' %.I L # Q ,.K             ",
"    9.Y Z     { ' l.E 0.d 9 3 t d n S q ) f d f A z z @ @ ^.: &./ ^.7 P 1.>.q Y o {.7.d % o % d @ d ..J e %.+ H - :.            ",
"      <.H       U z.P.6 f & f N O @ C x / N a.U A k % @ : dXM I e D 0.; &.c s U o 1 T %.N + ,.f F % y.:.P 1.. F c K             ",
"              B.& U 1 + o O f D * a.y %.=.x ! r + 1 t t - dXM P e A 0.; - 1 % R n , / &.p F N d U X j.@ 2.1.$ D %.A             ",
"            G r.= & o $ + + o 1 y 6 < 8 j i Q y % 9Xf s + ~.m 2.=.Z =.n % X O ;.&.6.d >.-.E z = X + F.# 2.<.+ r S H             "
};
