/* XPM */
static char *f5befb77c86745fbb7c2ad2f7bca2adeORha9Y086fMpG8jL[] = {
/* columns rows colors chars-per-pixel */
"64 64 248 2 ",
"   c None",
".  c #531B07",
"X  c #5B2407",
"o  c #5A2C10",
"O  c #6C2C09",
"+  c #662808",
"@  c #6E330B",
"#  c #7D3B0C",
"$  c #77340A",
"%  c #6B3717",
"&  c #7B3C13",
"*  c #733B19",
"=  c #753914",
"-  c #732D09",
";  c #733D24",
":  c #601E07",
">  c #7D421A",
",  c #774118",
"<  c #764422",
"1  c #7D4421",
"2  c #7C4A27",
"3  c #774C32",
"4  c #7E5131",
"5  c #843D0C",
"6  c #893D0C",
"7  c #813E12",
"8  c #8A460E",
"9  c #934C0E",
"0  c #90440C",
"q  c #9C580F",
"w  c #8A4413",
"e  c #8D4B1A",
"r  c #85461A",
"t  c #934C13",
"y  c #914D1A",
"u  c #955113",
"i  c #95531C",
"p  c #9B551C",
"a  c #9E5C1D",
"s  c #9B5614",
"d  c #8F531F",
"f  c #A45C14",
"g  c #A45B17",
"h  c #A55D0F",
"j  c #A96519",
"k  c #B36A16",
"l  c #BA7316",
"z  c #834A25",
"x  c #8C4D22",
"c  c #834925",
"v  c #934E25",
"b  c #8C5225",
"n  c #8B522B",
"m  c #88552A",
"M  c #945324",
"N  c #965A24",
"B  c #9C5B23",
"V  c #92552A",
"C  c #965B2C",
"Z  c #9B5C2C",
"A  c #9A5624",
"S  c #8C5630",
"D  c #8A5A38",
"F  c #955D32",
"G  c #9C5D31",
"H  c #A25C26",
"J  c #A15F32",
"K  c #9D622B",
"L  c #8F6039",
"P  c #9C6334",
"I  c #9A633B",
"U  c #9B693D",
"Y  c #966238",
"T  c #A46224",
"R  c #AC6622",
"E  c #A4622B",
"W  c #AA692A",
"Q  c #B26B29",
"!  c #B4732D",
"~  c #BA782B",
"^  c #A36434",
"/  c #AC6C34",
"(  c #A2673A",
")  c #A36B3B",
"_  c #AB6D3B",
"`  c #A76735",
"'  c #B16D34",
"]  c #AC743C",
"[  c #AA7236",
"{  c #B37433",
"}  c #B2743C",
"|  c #B77B3C",
" . c #B97C3B",
".. c #B77B34",
"X. c #C57D16",
"o. c #C27E35",
"O. c #9A6844",
"+. c #9B6E4A",
"@. c #A36E43",
"#. c #A56E49",
"$. c #AD7443",
"%. c #AA754A",
"&. c #AE7A4B",
"*. c #A77546",
"=. c #B27443",
"-. c #B47A44",
";. c #BB7D43",
":. c #B37C4B",
">. c #BA7F4B",
",. c #B87740",
"<. c #A87853",
"1. c #B17D51",
"2. c #A06E52",
"3. c #A07765",
"4. c #BE812A",
"5. c #BE843C",
"6. c #BF8333",
"7. c #C68529",
"8. c #C48537",
"9. c #CD913A",
"0. c #CC983F",
"q. c #D39433",
"w. c #DCA32D",
"e. c #BD8244",
"r. c #B5814D",
"t. c #BB834D",
"y. c #BD874B",
"u. c #B58352",
"i. c #BB8552",
"p. c #BD8A53",
"a. c #BC8B5B",
"s. c #B6875A",
"d. c #B68B58",
"f. c #B78C62",
"g. c #BD9266",
"h. c #BD9269",
"j. c #B08E73",
"k. c #C28543",
"l. c #C48B4C",
"z. c #C78A46",
"x. c #CB9145",
"c. c #CB934C",
"v. c #CA954A",
"b. c #D39947",
"n. c #C38B53",
"m. c #C88E53",
"M. c #C18D5C",
"N. c #C48A54",
"B. c #C49255",
"V. c #CB9453",
"C. c #CC9853",
"Z. c #C4925C",
"A. c #CB955B",
"S. c #CD9B5B",
"D. c #C59854",
"F. c #D29D53",
"G. c #D19B5C",
"H. c #D69B55",
"J. c #CDA05C",
"K. c #D4A25B",
"L. c #DAA659",
"P. c #DCA44F",
"I. c #C49463",
"U. c #C99661",
"Y. c #CC9B64",
"T. c #C59C6D",
"R. c #CA9D6B",
"E. c #C49867",
"W. c #D19D64",
"Q. c #D49F66",
"!. c #C49C71",
"~. c #C69772",
"^. c #C08F62",
"/. c #CDA26D",
"(. c #C9A169",
"). c #D3A265",
"_. c #D3A46B",
"`. c #D6AB6D",
"'. c #DBAC6C",
"]. c #DAA765",
"[. c #CCA473",
"{. c #CFA979",
"}. c #CAA67D",
"|. c #D3A571",
" X c #D4AB74",
".X c #DAAC74",
"XX c #D4AC7B",
"oX c #DCAF7A",
"OX c #D5A675",
"+X c #DDB175",
"@X c #DBB27B",
"#X c #DAB57C",
"$X c #E5B56B",
"%X c #E3B575",
"&X c #E2B47B",
"*X c #E4BA7D",
"=X c #E7BB78",
"-X c #E1AE6E",
";X c #E6C27C",
":X c #CFAC85",
">X c #D2AD82",
",X c #D2AE88",
"<X c #D5B384",
"1X c #DBB583",
"2X c #DDBA84",
"3X c #DAB58D",
"4X c #DCBB8C",
"5X c #D5B38A",
"6X c #DBBB93",
"7X c #E1B682",
"8X c #E3BC84",
"9X c #E3BD8B",
"0X c #E9BE88",
"qX c #E2BD91",
"wX c #D9BDA4",
"eX c #C49D80",
"rX c #DEC193",
"tX c #E5C185",
"yX c #E5C38C",
"uX c #EAC48B",
"iX c #EDCA8D",
"pX c #EAC486",
"aX c #E4C394",
"sX c #EAC692",
"dX c #EBCB94",
"fX c #E5C59B",
"gX c #E5C99B",
"hX c #EBCD9A",
"jX c #E6C897",
"kX c #EDD39C",
"lX c #EED598",
"zX c #F1D29A",
"xX c #F1CC8F",
"cX c #E9CEA2",
"vX c #E4CDA6",
"bX c #ECD3A4",
"nX c #EBD4AA",
"mX c #EAD4A8",
"MX c #F2DBAB",
"NX c #F1D6A4",
"BX c #EDDAB4",
"VX c #F2DCB2",
"CX c #F5E5B7",
"ZX c #F1E2B5",
"AX c #DAC5A4",
"SX c #F7EAC6",
"DX c #FAF3CD",
"FX c #EBDDC0",
/* pixels */
"                                                                                                                                ",
"                                                                                                                                ",
"                                                                                                                                ",
"                                                                                                        u.                      ",
"                                                    ^ v #.                                              ;.                      ",
"                      u.>X                        N.(     sXaX                                      nXs.                        ",
"          qXFX      ^   (           <.                ^     nX{.XX    ^                 <.,XR.,X    ~.  2.        aX3.          ",
"        >XQ g.^   4X    j.  5XR.,Xj.    ,X3X&X        XX  XX{.nXOXXX&XXX        &X3X,X    j.,XR.5X5XW.nXnX4X  3.f.Q >X          ",
"    qX3X6X^ J 2.  2.wXnX  eX:X:X_ wX  J qXqX<.h.3X` A.N.fXvX  6XhX' } N.A.#.3Xh.  qXqX9X    _ ,X}.   X6XAXeX  2.G ` 6XqX6X      ",
"  hXzX7XqXi.v {.qX@.|.A.qXXX  vX1.#.7Xv     ^.qXhXfXsXsX7X9X|.aXhX$.^ M R.4X  i.oXBX1X^.S 1.u.BX1X  vX X1XM.dX#.2.>.qX7XhXhX    ",
"  &X0X0XFXqXA I.%.-.uX&XsX&X_.Y.OX9X0XM.R.E..XsXOX>.zXzX7XzX9XzX.XN.a.I.G R.oX|.^ OX7X%.:..X>.hXqXi._.aX.X#X>.M.fXW.=.7X#.%X    ",
"0XsX7XqXcX.XZ <.XXQ.R.sXoX$.J M.>.M.$.^.f.{.1X0XU.qXVXSXSXqX^.N..X0X:.R.i.` R.XX+XoX^.%._.uX|.m.hXZ.a.hX-.U.M.Z.qXhX1X7X}.~.oX  ",
">.p.I.:X<X@X^.R.|.W.MXdX0X_.:.R.0X8X9X}.OXR.0X1XqXfXSX0XoX} |.7XA.0XN.cX@X=.|.nXW.W.|.MX7X7XNX4X>.G.Q.!.'.N.U.~.=.N.U.|.W.W.OXcX",
"p.sXU.1XQ.A.A..X+X.X9XfXbXaXa.oX|.U.1X7X&X&XsXsXcXBXuXW.tX8Xl.|.D O.^.xXNXQ.` Z.OXW.MXsX!.1.:.$.>.} k.qX0XfXqXs.M.c ' C _ =.>.Z.",
"  %Xm.fX0XMXE.^ U.aX:..X0X&X>X1XnX2Xa.7X'.Z.&XsXnXxX].7X'.).+X>.M.< ^.0X.XNXi.@.>XU.N.i.A.|.Z.C ).%.=.&X7X0Xf.^ ~.NX0XfX  & A ( ",
"  SX  VX7XMX1.$.%X@XY.` _.Q.cX>.` OXoXxX0X&XuXsXVX].0XsXoX] ).K.i.B.R..Xt.m.4X>.M.oX&X8X0X@Xi.n.-XN.J .XNXR.&X=.1.NX0XCX      ; ",
"      MXzXXXI oXiXoXNXSXU.Q.T.M M.@XMXVXMXsXhXMX9X8XxXsXQ.( G.Z.B.tX|.Q.g.9X+XJ u.Q..X).=X7X8X`..X]._.yX_..XiX&XI XXhXMX        ",
"    aX    O.I.1XzXR.=.U.<XY.i._ _.9X9XMX9XsXhXMX*XuXuXsXI.Z n.&X=XlX|.dX:.$.G.i.R.A.Q._.iXA.8XS.Q.G.dXhX~.|.hX1Xg.O..XsXaX      ",
"      R.&.( %.R./.` v N.N.jX@X.X|.*XQ.Q.l.yXQ.sXbXzXXXNXn._ *X=X0XiXdX%X).i.N.>.R.U.Q.uX=XU.@Xn..X&X_.M.v ^ [.R.%.I :.!.        ",
"      0XU.>.oXdXC _ /.0X&XjX_.8XM.U.G.>.Z _.N. X.X.XQ.sX|.C '.'.'.xX8X-X&X$.A.^ =.@..Xn.uXZ.[.>.'.NX5X<.Q._ Z xX.X>.U.8X        ",
"      cXR._ N.XXv [.cXSXhXgX2X7XY.G.p.V.A.0X2Xm.p.} A.oXY.+X%XA.` (.dX].'.>._.Z i.$.:.i.a.|._.m.yXNXN.DXvX[.v .XN.$.R.cX        ",
"        R.pX_.%XY.XX>XaXbXrXiX/.tX2X+X;X&XI.u.-./.t.#Xe.,..XzX=XtXcXkXc.;.-.n.H._ uX].n.;.M.A.n.MXU.j.aX>X{.W.%X_.pXR.          ",
"        9XaXdX_..X.XE.-.#XCX+X/.8X.X*XpXyXe u.V._.@XhXY.a.=.<X*X&.t.|.2X] n.W.7X^ +XL.A.e.-.A.7Xr.G.@X-.E..X.X_.sXaX9X          ",
"        -..XhXsXtXQ.a._ E.hX_.D..XgXSX XY.z.n.K.u.Y Y.$..XuXkXMX[.s.4XdXV.A.&XW.` i.N.z.{ z.+X9Xz._.E._ ^.W.0XaXhX.X-.          ",
"        7X>.=.dX8XY.s._ XXbX+Xy.'.!.r.@X;X-XC.B.f.E.5X`.Z.-._ oXCXrX@XCXVX-XlXm.o.N.oXi.).h.:X}.qXNXOX@.p.Y.*XdX=.>.7X          ",
"        a.C.|.*X>.m.Z.:.|.8XpXL.m.a.w n.*X).&.<.h.#XT.rXyX+XY._.Z.@XnX_.CXpX*XG.F.pXoXi a.n 1Xf.#.8X|.:.Z.n.t.*XOXA.a.          ",
"        .Xl.dX;.OX;.( >Xt..XdXC.e.2Xw t.#XI.O.a.] E.(.aXA./.I.sXU./.8XfXB.8XI.m n.Z.m.U.G ( yX@.sXoXN.>X( ;.XXe.dXl.            ",
"        |.A.%XE.H e.=.nX} ).uX_..XjXC :.h.O.T.=.).#XH A.hX8Xa.OXpXM._.cXjX8Xg.3 :.l.&.Y * >.E.( iXY.} nX=.;.H E.%XA.            ",
"          kXBXbX!.3XM.<X/ l.iXcX4X X( a.U /.2X( +X#X2X1X2X*Xt.V A.'.oXU.XXnXt.4 Y S , x / tX(.mXiXl./ 5XM.2X!.mXBX              ",
"          ZX.XzX_.VXMXBXvXsX2XdXA..X>XY.@X_.Z.9XA.hX5X:.+XA.M n V } c.G.-.|.fXD F U C V.x.dXy.dX2XsXvXBXZXBX6XvXrX}.3XtXe.      ",
"          ' A / / A.2XaXZ.2XaXfXbX[.A.cX Xl.@.i.r.Y.4X<XY.c.=.( v $.'.].B.y.{.XXl.).dXB.K.tXA.jXaX#XA.aXu.( [.mX:X!.cX>X;.F.    ",
"            * -.m._..XXX:.I.T.:.p.Y.E n.{ C <.c C $.l.y.yX`.S :.S r H o.-X).A.aXp.e.iX_.tX$XW :.T.I.:.XXb 1 %.( P e F <X[.Y.    ",
"            E H.B.)./.yXp.] a.Q.p.p.^ *X' Z T.! l.S.Q x.5.XX<Xp.;.v = H H z.A.oXp.V.S.yXyXx.n.).a.] p.yXp J ) U Z / V O.d.f.    ",
"              b.x.'.d.tX/ -XjXR.u.I.#XD.%.&.@.F.y.K.p ! b.r.t.Z.m. .` 7 J .Xm.N.l.B.y l.lX8.i.R.jX-X{ 2Xm.E B -.* / t O +.(...  ",
"              b.b.].} tX=.T.:.#.{.bXMXmXd.p.A.#XB.dXF.K ! E a.d. XW _ x y A l.%X/ l.! ] pXk }.#.-.R.$.8X .E u k.r / E O = r.p.  ",
"              x.q.p.R 2XI.R.:XvXOX6XmX<XcXXXk.U./ e.lXXX..] u.(.;X~ $.Q v ^ Q.H.T l.! n.S.b {.vX:XT.g.2Xp.I ! z.^ ] r.8 & S <. X",
"               .9.B.T XX~.~.qXfXI.i.=.:.8.T.a.8.C.k. XkXaX} a.a.8XA W g H w ` k.W b.( #Xn.N.U.fX6XR.~.XX`.b n ' *.[ p.a C.( %.u.",
"              x.~ l.'.rXoX!.Z A E Z.i ].b.r.a.L.C.G./.r.'.XX-.XX*Xg k.t e } H A.T p.D #X1.Z.E M G [.oX6X5.U s.u.g.).a.  $X{ &.d.",
"              x.k.|.6X2X^ e x ) $. Xz.L.y./.e.OX;XS.u.` (.Y.XX_.lX!  .5 # } W A.P L z tXE  X] _ x x J 2Xc ( y. X(.d. X    5.9.) ",
"            C ! z.N.-.E.Y @.Y 5XZ.rXyXiXyXyXmXyXpXNXjX9XfX*X[.U.dXo.0 O 8 H T k.x * W tXr.aXZ.<XF #.F E.=.N.z.! N b.*X]         ",
"            l.S.cX@Xs.E.[.>XaXSXCX{.vXDXbXB.CX7XNXCXNXyX2Xm.m.Z.+Xj j 8 g M N V.r > V.+XvX!.CXDXaX<X$Xg q 9.| P.$ .Xe.          ",
"            4X3X}.4XvX6XBXBX[.) {.#X-.Z.Z.a.@XkXY.bXyXv.s.x ' e.<XK g j l @ M r.> k.'.S.-.#XOX@.[.ZX`.a k 9./ b.8 e.c.          ",
"            <XcX!.,XmX[.U u.p.$.u.) U M Z U Z u.<X8Xp.XX#.E B K.Z.] F Q 8.P v u.u 8._.a.I ] 1.$.s.u./.Q k q.| F.z e.S.          ",
"        ).[.>XF e P U %.c M m.5./  Xt.0.l.H A O V ` %.s.u.rXI.,X&.+.F h.A.rXu.R.# ! `.b.t..X/ 5.c.b /.8.l ~ e B.n [.J.          ",
"        a.d.O.C / K U ) Z p K.9.i (.! b.K.W x x 1 c Z 2 f.n.u.L 4 L O.5XvXp.BX|.T.! #Xb.! (.i 9.K.p /.8.j g 7 t.* f.            ",
"      4.!.O.O y _ * -.B E v.F.~ p p.6.`.J.i J n.'.E ` E D 8 ] , % * 2 z Y :.9XfXhX! J.'...p.s ! C.V._.7.l j > i.e v.            ",
"      d.r.& @ E / r k.u K  .R.e._ r.<XjX/.C y I E.6XR.p Y s $ > b $.) w * r & 1.bXp.(.fX<Xu.] k.R. ._.u X.R 7 D.s c.            ",
"     X<.S & 8 :./ ` z.! I n.R.<XnXg.a.r K.%.i Z O.zX#X= U 4.9 a | `.G.j 7.Q =.( u.:.K.w p.g.bX<XT.p.'.~ l p # l.M 8.            ",
"    r.%.) C.g d.{ *.[ b b `.i.E.a.1.#.T $Xp.e U n N.u.c K 0.8 q 8.t.p T ~ ~ x.Z r.a.$XT 2.1.a.E.p.'.`.j h 6.# r.T 5.            ",
"  ) d.-.{ $X  a.).g.u.s.) e.M I z z F ! L.r.K *.L +.O.c r P.N j z.A.W g l Q ..%.D f.K.! C z c Y C ;.).Q ..4.+ &.a 5.            ",
"    O.9.5.    `.d.(.|.y.` 1 ] ) = 2 K T v.W $.r.S 3 D w w $XH h 8.e.b.6 Q a Y %.4 D v.T E 2 = ) _ c Y.{ h l X [ u ..            ",
"      S     L J.d r.b z Z = &.@.K &.p.j v.W p.[ < 4 D ^ t $Xf q 9.| P.$ i V < :.# D b.R p.&.E @.&.% A.8 j 7.X ) p ..            ",
"            5.C.d A % X C @ 1 D t.t.L a 5.v.e.l.V 7X#.} - '.f k 9./ b.8 S 2 & 8.- l.5.p C t.t.D 1 @ ).5 k ~ @ K ~ 5.            ",
"            C.[ K T % X K & H M f.'.9 > 5.L.$.v.# :.G g + /.Q k 0. .F.x S % v b.8 L.6.> u '.d.b B & K X % T K [ C.e.            ",
"            S.8 i ! , < d # B ! (.r.a m 5.x.r.F.0 ! p.+ @ /.8.l ~ e l.S % j W 9.s x.5.m a r.(.! B # b , > ..i 8 S.              ",
"            | E [ r.D D V K u Q Y.U 5.z 5.l.] c.0 7.*.+ $ (.8.j j & p.* = 7.T { t l.| m 5.U (.Q u T V D D &.[ E e.              ",
"            / E @.3 3 % O.N N a C.K o.Y ..c.} 5.- w.-.O u ).o.l T > r.e , 0 ..j e C.! P o.C V.a s K U % 3 3 *.W W               ",
"            K E +.L < , U *.[ N p.P j F 5.v.C...# q.i.8 0 '.9 X.R 7 A.g q 0 x.y N v.5.L k P y.K [ +.) , < L U K K               ",
"            C U m . + 6.J.9.U 2 P d.q d y.9.y.{ $ 7.(.u 5 `.~ X.i # l.i k j F.$ P 0.e.d s u.P 2 U 5.K...@ . m ) F               ",
"            b L , , , K C.b.Y U E g.# a r.4.D.x.9 l J.] + '.j h ..5 r.E | T x.5 [ 4.r.a # E.E U Y b.K.K , % , L m               ",
"            < U * p K N ]...r O.K (.9 u p.l D.b.8 j K.[ X ).Q ..4.+ &.a 8 W l.] p.k p.9 9 /.B O.> | ).N K N * U <               ",
"            < ) @ B T M J.T < L Y [.9 8 u.j p.6.8 j J.P O Y.! f l X ] u 5 5 $.r ).f p.8 u [.P D < W J.M j K @ ) <               ",
"            , [ + @ R x F.C % * (.(.u q p.8 p.6.q j K.P # A.5 j 7.X ^ s O O [ 7 ].8 p.9 i (.(.* % C F.e R @ + ] *               ",
"            , | 8 , j n l.% o % E.(.+ j a.O '.8.j j v.P 9 G.5 k 4.@ P ~ & $ ] # J.@ g.j O (.I.% o % l.n k # , | ,               "
};
