/* XPM */
static char *_7f9f84d5e0b4c53d1561c7bf667437eLsQQIKnMVgFYOn0h[] = {
/* columns rows colors chars-per-pixel */
"64 64 253 2 ",
"   c None",
".  c #57330C",
"X  c #593C15",
"o  c #4D300C",
"O  c #67390D",
"+  c #633B14",
"@  c #6D3E14",
"#  c #673C19",
"$  c #703E10",
"%  c #643D27",
"&  c #6A431B",
"*  c #684119",
"=  c #754415",
"-  c #754B1B",
";  c #7C4C1C",
":  c #794718",
">  c #7B5719",
",  c #7A6217",
"<  c #5C4528",
"1  c #6A4725",
"2  c #744C23",
"3  c #7B4D23",
"4  c #734B28",
"5  c #7D5325",
"6  c #785629",
"7  c #734E35",
"8  c #7B6624",
"9  c #824C1C",
"0  c #87571A",
"q  c #935C18",
"w  c #915C0F",
"e  c #8A6818",
"r  c #966917",
"t  c #897518",
"y  c #98771B",
"u  c #80600E",
"i  c #A27919",
"p  c #835424",
"a  c #885A27",
"s  c #935D23",
"d  c #896526",
"f  c #956C2B",
"g  c #976825",
"h  c #8A7729",
"j  c #9B7C24",
"k  c #94732C",
"l  c #9B742B",
"z  c #957A2C",
"x  c #9C7B2B",
"c  c #967726",
"v  c #996E32",
"b  c #936B33",
"n  c #8D7637",
"m  c #957334",
"M  c #9B7433",
"N  c #947B33",
"B  c #9D7C33",
"V  c #93743A",
"C  c #9B763B",
"Z  c #9C7B3C",
"A  c #957C3D",
"S  c #8A6535",
"D  c #A2742C",
"F  c #A67A28",
"G  c #A27433",
"H  c #A37B33",
"J  c #A2763B",
"K  c #A47B3C",
"L  c #AB7C3C",
"P  c #AA7E33",
"I  c #B27E33",
"U  c #A05B0F",
"Y  c #9B7643",
"T  c #9D7C43",
"R  c #997445",
"E  c #907647",
"W  c #A37B43",
"Q  c #A47D49",
"!  c #A97D45",
"~  c #988E1D",
"^  c #A4851E",
"/  c #AB991A",
"(  c #B39A1C",
")  c #A9A71A",
"_  c #B5A81A",
"`  c #988427",
"'  c #9D8333",
"]  c #9B843C",
"[  c #988938",
"{  c #97922C",
"}  c #A38225",
"|  c #A6872A",
" . c #B48529",
".. c #A69728",
"X. c #A38333",
"o. c #A4843C",
"O. c #AB823B",
"+. c #AB8B3D",
"@. c #A68835",
"#. c #B58838",
"$. c #A7973B",
"%. c #B8933A",
"&. c #BB9C24",
"*. c #A7A439",
"=. c #B2B032",
"-. c #9FA03D",
";. c #C2963C",
":. c #C2B339",
">. c #D0A82E",
",. c #9B8243",
"<. c #968846",
"1. c #988F55",
"2. c #A48344",
"3. c #AB8344",
"4. c #A38C44",
"5. c #AB8B43",
"6. c #A5834A",
"7. c #AC854B",
"8. c #AD8A4C",
"9. c #A4894A",
"0. c #B28644",
"q. c #B58B45",
"w. c #B1864B",
"e. c #B38B4C",
"r. c #BA8D4A",
"t. c #B98A44",
"y. c #A99647",
"u. c #BA9243",
"i. c #B3934B",
"p. c #BC924D",
"a. c #B69849",
"s. c #AA8952",
"d. c #B28A52",
"f. c #BB8F52",
"g. c #AA9B59",
"h. c #BB9452",
"j. c #B69956",
"k. c #9EAA58",
"l. c #9FA448",
"z. c #AAAA49",
"x. c #B4AB4D",
"c. c #BCAC4C",
"v. c #B8A74A",
"b. c #BAB24B",
"n. c #ABA455",
"m. c #A4AA55",
"M. c #ACAA55",
"N. c #ADA65A",
"B. c #A4AA5A",
"V. c #ACAB5B",
"C. c #A3A556",
"Z. c #B4AB55",
"A. c #BBAB54",
"S. c #B4A35C",
"D. c #BBA45C",
"F. c #B3AA5B",
"G. c #BCAB5B",
"H. c #B9A452",
"J. c #BDB154",
"K. c #BBB25A",
"L. c #B6B357",
"P. c #AFB049",
"I. c #AD9A62",
"U. c #ACAB64",
"Y. c #ACAD6A",
"T. c #A8A865",
"R. c #B4A564",
"E. c #B4AB64",
"W. c #BBAB64",
"Q. c #B5AD6B",
"!. c #BCAC6C",
"~. c #BCA566",
"^. c #B5B363",
"/. c #B4B36B",
"(. c #BCB46C",
"). c #BBB86A",
"_. c #BBAC73",
"`. c #B9AC76",
"'. c #B4BC75",
"]. c #BAB776",
"[. c #ABB26E",
"{. c #9A8B65",
"}. c #C2964A",
"|. c #C29C53",
" X c #C19A59",
".X c #C08F4B",
"XX c #C4AA4A",
"oX c #C2A35B",
"OX c #C3AB5C",
"+X c #C5A956",
"@X c #C3B25C",
"#X c #C6B25A",
"$X c #CBB34C",
"%X c #C4AB63",
"&X c #C4AD6C",
"*X c #C7AA66",
"=X c #C4B163",
"-X c #C4B46C",
";X c #CBB26D",
":X c #C7B768",
">X c #D3B869",
",X c #C3AE76",
"<X c #C3B372",
"1X c #CBB474",
"2X c #C3BA74",
"3X c #C4B47B",
"4X c #CBB47A",
"5X c #C2BC7C",
"6X c #CBBC7B",
"7X c #CCBA74",
"8X c #D4BD7C",
"9X c #D4B876",
"0X c #BCC27C",
"qX c #B2CB6D",
"wX c #D0CC5C",
"eX c #CAC969",
"rX c #D3CD6E",
"tX c #D2C469",
"yX c #D4D065",
"uX c #CEC274",
"iX c #C9C579",
"pX c #D4CC73",
"aX c #D4C47C",
"sX c #D5CD7B",
"dX c #DBCC7D",
"fX c #D7C676",
"gX c #D7D179",
"hX c #CCD06A",
"jX c #BCBB89",
"kX c #CCBC83",
"lX c #C7B985",
"zX c #D3BD84",
"xX c #D9BE8C",
"cX c #CBB38C",
"vX c #BAC584",
"bX c #B6C092",
"nX c #CCC382",
"mX c #C9C889",
"MX c #D3C483",
"NX c #DBCB84",
"BX c #D7C888",
"VX c #DAD389",
"CX c #C9CA95",
"ZX c #D5CD94",
"AX c #D8CA96",
"SX c #D7D498",
"DX c #C7D499",
"FX c #E1D498",
"GX c #E1CA90",
"HX c #DBD9A3",
"JX c #CCDBA2",
"KX c #E3DAA5",
"LX c #E2E7AC",
/* pixels */
"                                                                                                                                ",
"                                                                                                                                ",
"                                                                                                                                ",
"                                                                                                                                ",
"                                                                                                                                ",
"                                                                                                                                ",
"                                                                                                                                ",
"                                                                                                                                ",
"                                                                                                                                ",
"                                                    1.1.4.                                                                      ",
"                      6.Y.                        1.$.    NXsX                                        9.                        ",
"        1.kXDX      1.  Z           y.                <.              E             CX  6.          eXHX1.      AX].1.          ",
"        <X| d.g.  zX{.  g.{.  T.].I.  <.  3XE.        :X  &X*X  `.  7X*X        <XlX`.lX].I.`.~.     XFXCXiX  s.s.l pX          ",
"  BXnXaX3X@.b <.cX<.lXAXjXT.`.Y.J cX  @.  kXY S.  g.p.e.aXmXcXjX  L H e.t.R sXd.  lXsX1X`.z.@._.eX  eXpXlXqX[.1.' v xX3XMX      ",
"  dXNXpXzXw.` U.&XY *Xh.5XE.    Q 9.;X{     j.aX  aXdXGX9X3X~.iX  J v a %X4X  ! &XSX8XZ.h 7.6.ZXrX    =X<Xe.iXV <.6.xX3XNXBX    ",
"3XtXaXrXZX/.p g.Y W 8X1XnXW.W.N.*XkXzXd.R.S.&XpX=X2.dXAX1XNX4XNX*Xw.h.f.d G.1X%XH *X>Xy.y.&X! gXaXP.@XaXW.hX! q.gXOXL -XR ;X    ",
"dXdX9XsXAXF.p 4.=XoXD.6X!.J ' d.6.w.J j.M.!.<XrXh.8XVXHXKXlX8.w.%X>XQ oXa.M S._.;X-X8.y.%XzX%Xj.8Xb.w.8X3.p.b.A.pXGX*X<X=XR.&X  ",
"! w.r.eX4XQ.w.V.@XD.ZXBX7XM.6.B.8X/.6XU.~.S.aX;XaX9XSXNX;XJ  X(.r.tXd.MX&XJ ~.SXD.XX:XZX4X<XBX].K .XJ.L.F.3.N.S.G w.r.W.A.oX!.BX",
"i.dX}.4X~.h.e.E.1XW.3XiXNX'.7.V.~.h.<X(.-X%XzXpXBXAXgX.XpX-X3.W.[ n H.gXgXE.=.Z.!.D.VXiX~.T W 2.! J L uX2XnX].7.v.% G c G J 3.f.",
"  >Xr.sX9XmXR.v J.5XT !.).L.Y.T.mX].n.W.G.A.;XgXVXgX}.*XoXD.tXK 7.8 G.8X*XmXx.K _.n.b.7.L.%Xj.` +XW L >XQ.2Xw.5 G.AXpX5X7 ` a v ",
"      VX1XmXY 4.=X^.S.m m.m.'.Q M U.&XNX2X-X6XMXVXOXrXdX#Xo.oX+X,.c.S.*Xa.t.].A e.V.9X(.7X(.Q 5.G.7.s =XmXB.W.T W ZX7XVX      6 ",
"    LXSXNXU.n V.aXE.NXDXm.M.B.s 7.W.ZXZXVX6XnXMX6X7XgXGXh.*.XXA.d.6X%XD.Z./.W.M 6.m.*XM.;X;X^.M.W.G.S.uXM.F.iXW.n E.AXFX        ",
"    aXnXW.l.g.Y.BXB.N m.U.m.9.z.F.(.2XmX2X5XMXBX:XaX8XaXJ.*.7.L.9XpXR.0Xz.C $X<.n.c.oXF.aXj.^.c.Z.XXnXdXT.F.MX/.n.n W.5XkX      ",
"      U.y.$.Z B.V.v s w.] '.V.M.V.(.}.F.2.6XS.iX0XAXU.mX,.*.=X^.).5XiXM.D.,.8.Z ~.M.oX'.:XS./.2.M.(.F.e.c H B.V.C V 6.U.        ",
"      2Xj.Z W.MXp J V.).^.'.V.(.s.J.A.W ' G.,.B.B.F.G.6X!.` W.Z.F.gX-XG.:X*.p.*.K B @X,.6Xx.@X! #XgX`.g.m.X.f MXU.! n.7X        ",
"      mXW.+.d.=X; K.mXJX0XnX/.4XA.}.9.5.r.8X/.c.7.$.r.E.G.V.%Xp.$.Z.MX+XG.W E.- v.X.T 2.s.OXOXw.pXgXx.HXMXOX{ W.7.M M.MX        ",
"        L.8XF.>XD.=X_.lXvXiX0Xj.2XpX;XtX:XA.8.y.V.L 1XK +.V.mXL.).mXmXr.K W t.}.$.uXOX7.K e.+Xe.ZXe.I.pXhX!.+X;XW.aX~.          ",
"        fXaX0X|.OX&XN.J V.ZXM.j.-X:X;XuX6Xc z.#.F.&XdXD.v.o.].^.6.3.W.-X$.u.}.4XX.eX+Xp.L +.e.pX5.+X1XK F.-X*X#XMXaX8X          ",
"        K %X5X8X).oXZ.$.k.MXV.4.F.gXHXW.S.o.e.}.6.[ j.C &X5XmXmXU.7.3XMXw.u.;XoX| i.2.u.F b.hXgXt.OXn.$.Z.@XrXMXNX*X@.          ",
"        rX0.! BX).~.7.$.V.FXF.[ F.^.T &X;X#Xh.8.V.H.pXj.c.K *.E.SXlX&XHXZX%XgXc.K a.W.2.D.M.(.^.].FX!.H 7.J.tXBX3.L 8X          ",
"        w.r.%XtX! v.q.3.V.rXuXh.r.7.y <.:XD.K l.g.1Xi.xXuX&X.XV.i.!.AX@XKX8X9XXX5.yXW.2 P.2 hXL.2.fXW.W A.e.! ;X%X}.w.          ",
"        oXu.pX%.*XL ' -X7.*XNX5.#.pXt 2.).g.] M.K D.h.BXf.V.j.0XA.V.4XkX8.6Xg.h 2.v.2.j.B ' pX' MX*X,.<X' L >X! BX#.%X          ",
"        OX.XtXi.f L 3.SX| J.dX XW.ZX  z.I.[ B.K A.(.p j.NX/.7.B.-Xj.W.nX'.2Xj.1 T o.T [ h W J.' MXJ.M ZXT L ` m.;Xr.=X          ",
"          NXSXBX~.4Xw.3X@.q.gXAXhXW.} 7.B V._.' *X).8X/.uX^.T z h.M.W.S.T.VXA 7 -.4 # : | rXJ.VXfXo.M 4Xi.iXG.vXZXnX            ",
"          KXOXNX%XAXZXAXZXkXhXBXp.@X,Xn.&XF.w.6XH.'.iXT ;Xh.d 2 5 M o.XXN V.0X7 N $.p +.[ gX,.aXhXzXjXVXZXZX3XvX5XT.  (.K       ",
"          G 9 D | c.1XkXq.(.kXnXMX~.q.vX&Xw.o.w.! M.kXY.+X5.C H d +.OX+X2.,.T.T.] +XiX4.y.pXe.MXzX4Xf.kXT ' ~.vX`.T.VX`.K u.    ",
"            ` ! w.OX&X_.! j.R.Y v.~.} P.| a 2.4 3 o.0.3.kXZ.` W 4 : ` I L.Z.7.'.] K '.%X).#XF T R.Z.A &Xd # Y V m y b _.Q.oX    ",
"            ` a.8.#X%XaX8.@.H.F.w.7.l ^.X.f d...t.A.l %.' U./.9.Z 9 $ F g +.8.E.] e.h.iX6X@.,.OXj.$.,.7X` x m n f M d n M.0.    ",
"              %.#.%Xn.(.H M.nXC.6.S.-Xe.y.*.[ u.O.|.y D @.5.Y n.2.H k * ' F.7.7.] i.: 3.NX .Q A.kXF.l 2Xu.*.c O.+ M ` ~ V U.F   ",
"              #.;.V.J ).K k.4.o.~.vXVXvXM.2.b.rX7.MXu.j x x 7.9.=Xl M - 0 ; 0.:Xl q.l @.).| U.o.W B.o.].L j y #.: M k y @ 7.3.  ",
"              #.:.3.F E.Z.k.`.vX(.].CX^.mXU.H b.X.H sXeXD +.Q R.yXj M D 9 ' +X}.f t.c 0.D.d R.mX_.k.L.[.s.p D #.k M J ~ @ 4 2.  ",
"              H ;.5.F W.R.B.6X'.H.Q 5.,.X.B.Z.H i.H hXiXiXO.x.7.yXk l i g > M #.D %.k E.d.,.j.6X].B.C.T.G.z d C Z l 6.y v.B W K ",
"              @.c o.OXjX1X~.@.3 X.f.e XX+.N Z.a.5.J.K.K G.!.3./.:Xr ' : 9 c g 5.g ,.n /.Q e.} 5 l B.Y.[.H m y.y.F.n.v.<.wXP O.6.",
"              o.o.wXlX6X` : z ' +.W.H +X] ~.[ =XyXH.6.*.N.D.U.M.VXl z $ = G l h.s 6 1 ).v V.K $.k & p /.# C ,.F.eXT OX    #.:.*.",
"            c j 2.2.N j.N Z b /.L.4X2XMX2X6XZXuXpXVXgXzXkX1XB.n.nX} $ O = p g o.2 > l ).Z 6Xj.Q.b V M N.M w.] F ; }.8XC jX      ",
"            3.j.AX&Xd.D.T.Q.4XSXSXR.lXLXnXa.SXtXVXVXVXpX/.w.t.n.W.^ i e i 9 j e.1 # q.E.kXU.SXHX].Y.=Xi U  .z ;.O *XL           ",
"            7XlX`.kXjXlXDXSXU.C U.Q.T Z.c.M.1XaXJ.NXaXq.y.z F ! (.a q _ ( + p ,.* O.A.p.W ,XE.C ~.DX#Xi / ;.G %.t L i.          ",
"            ,XCXk.`.0XQ.b T 7.Z Q C ' ` d m k Q -X6Xa.-XY k g b.i.C a .. .[ : T : X.M.j.m K W Y d.Q L.D / ;.k %.` L h.          ",
"        h.&X_.b - f m Y d j 5.B M F.] %.o.c q 8 0 n C 9.Q 6XZ.hXA E a T.u.].2.V.# j Z.;.3.W.M I q.j F.P ( F ` q.a Q.p.          ",
"        w.9.V a M f n v f ` H.| 9 M.l +.a.f 3 ` & ` 5 h s.7.z.[ n [ n _.mXZ.CXF.k.F U.;.| M.j #.XX` m.X./ i t 2.+ 9.            ",
"      j E.V . y M , W j g 2.y.i 0 2.x G.i.y B 3.OXk k k h @ G * t X { 2 N Q 3XkX4XD c.m.D 7.^ F p.t.n.j _ F @ 9.j +.            ",
"      <.Q > , c M t o.y x N B.H M Y Y.kXB.5 : Z T.lX~.y m r > 0 z C k : # d # Y vX,.V.'._.Q m O.B.N M.e _ F u h.^ q.            ",
"    W.9.N > e Z M k @.l B ] B.Y.ZXg.s.0 y.Q ; z V dX,X@ m j 9 w H F.p.g  .) L G ,.T |.0 d.g.mXQ.k.] V.F _ 0 @ 0.: #.            ",
"    Q W m 4.y <.l C G z 2 M.6.C.7.Y R g L.,.= V 2 w.Q & a { = e O.o.r .. . .@.d W d.=X} R W 6.g.6.m.Z.^ r I $ ! ..X.            ",
"    7.K D >X  4.m.g.T 6.m N ; b h h c c y.Z k C A A E : @ XX0 ) X.b.f U &.| k W 4 g.a.F 3 1 & n ; H M.F F F . J 0 O.            ",
"      #.@.    =X,.R.E.] m - m V @ 1 k g +.l $.T n 8 1 = 0 wXF U | o.u.w ..r n Y % 6 +.{ f # { N M & n.P i ( . M r P             ",
"              h.- Q 3 & 3 + Y V 5 $.<.} +.l 2.M # 7 S m : wXi i X.H }.u 0 4 1 K t 6 5...,.W f N T + n.= ) &.. m ` F             ",
"              i.- ; X . 2 + * 6 A [ 2 e X.] O.] 2 <XC N O $Xy ) #.l +.t - * & O.~ #.X.~ ' 2.T 6 # + H.= )  .O k } O.            ",
"            u.D ..s X . 2 @ p 3 n.V.r - F v.C o.t Z d / . G.' ) :.X.}.3 2 + : :.e XX#.* w |.n.0 p = f o X F p G u.!             ",
"            H.= > l & 8 - @ e D R.2.q 6 O.+.J y.r D 9.+ + G.:._  .- #.5 X ..| :.y %.O.& ..y.R.| 0 , - * & F q t i.              ",
"            L g N T 1 7 5 s - F G.' ' 2 P ] N q.e _ M X O J.=.) | @ Q O + &.> G y %.L & P ' Z.| y ; - 7 1 ,.] x K               ",
"            l ..n 1 < X m a ; y 5.x x f @.+.x ' O >.H X 9 K.=._ ^ & 3.t = w H } : :.F 2 I 2 q.0 0 - V X < 1 Z ..D               ",
"            { g n l.* & M E *.0 2.B ..a O.[   z O >.v.@ = +X> _ ) & p.r 0 r XX= - b.O.1 / ' o.- ' o.M @ & S A ..>               ",
"            5 m 1 o ~ B i.#.$.& { 8.y a #.'   l O >.S.- * @XF _ r * 0.; ) ) $Xu +.=.o.- y P.' 1 ,.#.i.G X 8 6 Z 2               "
};
