/* XPM */
static char *metal_crate3_resized[] = {
/* columns rows colors chars-per-pixel */
"64 64 20 1 ",
"  c #180B0B",
". c #3D1C1C",
"X c #3E1D1D",
"o c #904242",
"O c #904343",
"+ c #974747",
"@ c #994848",
"# c #9A4848",
"$ c #9C4A4A",
"% c #A04C4C",
"& c #A24D4D",
"* c #A34E4E",
"= c #A34F4F",
"- c #A75050",
"; c #A95252",
": c #A95353",
"> c #AA5353",
", c #AB5454",
"< c #B05757",
"1 c #B15757",
/* pixels */
" .XXXXXXXXXXXXXXXXXXXXXXXXXXXXXXXXXXXXXXXXXXXXXXXXXXXXXXXXXXXX. ",
".+#@@@@@@@@@@@@@@@@@@@@@@@@@@@@@@@@@@@@@@@@@@@@@@@@@@@@@@@@@@#+.",
"X#&----------------------------------------------------------&#X",
"X@-1<<<<<<<<<<<<<<<<<<<<<<<<<<<<<<<<<<<<<<<<<<<<<<<<<<<<<<<<1-@X",
"X@-<<<<<<<<<<<<<<<<<<<<<<<<<<<<<<<<<<<<<<<<<<<<<<<<<<<<<<<<<<-@X",
"X@-<<<<<<<<<<<<<<<<<<<<<<<<<<<<<<<<<<<<<<<<<<<<<<<<<<<<<<<<<<-@X",
"X@-<<<<<<<<<<<<<<<<<<<<<<<<<<<<<<<<<<<<<<<<<<<<<<<<<<<<<<<<<<-@X",
"X@-<<<<>%,1>%,1>%,1>%,1>%,1>%,1>%,1>%,1>%,1>%,1>%,1>%,1>%,<<<-@X",
"X@-<<<<*o=1*o=1*o=1*o=1*o=1*o=1*o=1*o=1*o=1*o=1*o=1*o=1*o=1<<-@X",
"X@-<<<<*O=1*O=1*O=1*O=1*O=1*O=1*O=1*O=1*O=1*O=1*O=1*O=1*O=1<<-@X",
"X@-<<<<*O=1*O=1*O=1*O=1*O=1*O=1*O=1*O=1*O=1*O=1*O=1*O=1*O=1<<-@X",
"X@-<<<<*O=1*O=1*O=1*O=1*O=1*O=1*O=1*O=1*O=1*O=1*O=1*O=1*O=1<<-@X",
"X@-<<<<*O=1*O=1*O=1*O=1*O=1*O=1*O=1*O=1*O=1*O=1*O=1*O=1*O=1<<-@X",
"X@-<<<<*O=1*O=1*O=1*O=1*O=1*O=1*O=1*O=1*O=1*O=1*O=1*O=1*O=1<<-@X",
"X@-<<<<*O=1*O=1*O=1*O=1*O=1*O=1*O=1*O=1*O=1*O=1*O=1*O=1*O=1<<-@X",
"X@-<<<<*O=1*O=1*O=1*O=1*O=1*O=1*O=1*O=1*O=1*O=1*O=1*O=1*O=1<<-@X",
"X@-<<<<*O=1*O=1*O=1*O=1*O=1*O=1*O=1*O=1*O=1*O=1*O=1*O=1*O=1<<-@X",
"X@-<<<<*O=1*O=1*O=1*O=1*O=1*O=1*O=1*O=1*O=1*O=1*O=1*O=1*O=1<<-@X",
"X@-<<<<*O=1*O=1*O=1*O=1*O=1*O=1*O=1*O=1*O=1*O=1*O=1*O=1*O=1<<-@X",
"X@-<<<<*O=1*O=1*O=1*O=1*O=1*O=1*O=1*O=1*O=1*O=1*O=1*O=1*O=1<<-@X",
"X@-<<<<*O=1*O=1*O=1*O=1*O=1*O=1*O=1*O=1*O=1*O=1*O=1*O=1*O=1<<-@X",
"X@-<<<<*O=1*O=1*O=1*O=1*O=1*O=1*O=1*O=1*O=1*O=1*O=1*O=1*O=1<<-@X",
"X@-<<<<*O=1*O=1*O=1*O=1*O=1*O=1*O=1*O=1*O=1*O=1*O=1*O=1*O=1<<-@X",
"X@-<<<<*O=1*O=1*O=1*O=1*O=1*O=1*O=1*O=1*O=1*O=1*O=1*O=1*O=1<<-@X",
"X@-<<<<*O=1*O=1*O=1*O=1*O=1*O=1*O=1*O=1*O=1*O=1*O=1*O=1*O=1<<-@X",
"X@-<<<<*O=1*O=1*O=1*O=1*O=1*O=1*O=1*O=1*O=1*O=1*O=1*O=1*O=1<<-@X",
"X@-<<<<*O=1*O=1*O=1*O=1*O=1*O=1*O=1*O=1*O=1*O=1*O=1*O=1*O=1<<-@X",
"X@-<<<<*O=1*O=1*O=1*O=1*O=1*O=1*O=1*O=1*O=1*O=1*O=1*O=1*O=1<<-@X",
"X@-<<<<*O=1*O=1*O=1*O=1*O=1*O=1*O=1*O=1*O=1*O=1*O=1*O=1*O=1<<-@X",
"X@-<<<<*O=1*O=1*O=1*O=1*O=1*O=1*O=1*O=1*O=1*O=1*O=1*O=1*O=1<<-@X",
"X@-<<<<*O=1*O=1*O=1*O=1*O=1*O=1*O=1*O=1*O=1*O=1*O=1*O=1*O=1<<-@X",
"X@-<<<<*O=1*O=1*O=1*O=1*O=1*O=1*O=1*O=1*O=1*O=1*O=1*O=1*O=1<<-@X",
"X@-<<<<*O=1*O=1*O=1*O=1*O=1*O=1*O=1*O=1*O=1*O=1*O=1*O=1*O=1<<-@X",
"X@-<<<<*O=1*O=1*O=1*O=1*O=1*O=1*O=1*O=1*O=1*O=1*O=1*O=1*O=1<<-@X",
"X@-<<<<*O=1*O=1*O=1*O=1*O=1*O=1*O=1*O=1*O=1*O=1*O=1*O=1*O=1<<-@X",
"X@-<<<<*O=1*O=1*O=1*O=1*O=1*O=1*O=1*O=1*O=1*O=1*O=1*O=1*O=1<<-@X",
"X@-<<<<*O=1*O=1*O=1*O=1*O=1*O=1*O=1*O=1*O=1*O=1*O=1*O=1*O=1<<-@X",
"X@-<<<<*O=1*O=1*O=1*O=1*O=1*O=1*O=1*O=1*O=1*O=1*O=1*O=1*O=1<<-@X",
"X@-<<<<*O=1*O=1*O=1*O=1*O=1*O=1*O=1*O=1*O=1*O=1*O=1*O=1*O=1<<-@X",
"X@-<<<<*O=1*O=1*O=1*O=1*O=1*O=1*O=1*O=1*O=1*O=1*O=1*O=1*O=1<<-@X",
"X@-<<<<*O=1*O=1*O=1*O=1*O=1*O=1*O=1*O=1*O=1*O=1*O=1*O=1*O=1<<-@X",
"X@-<<<<*O=1*O=1*O=1*O=1*O=1*O=1*O=1*O=1*O=1*O=1*O=1*O=1*O=1<<-@X",
"X@-<<<<*O=1*O=1*O=1*O=1*O=1*O=1*O=1*O=1*O=1*O=1*O=1*O=1*O=1<<-@X",
"X@-<<<<*O=1*O=1*O=1*O=1*O=1*O=1*O=1*O=1*O=1*O=1*O=1*O=1*O=1<<-@X",
"X@-<<<<*O=1*O=1*O=1*O=1*O=1*O=1*O=1*O=1*O=1*O=1*O=1*O=1*O=1<<-@X",
"X@-<<<<*O=1*O=1*O=1*O=1*O=1*O=1*O=1*O=1*O=1*O=1*O=1*O=1*O=1<<-@X",
"X@-<<<<*O=1*O=1*O=1*O=1*O=1*O=1*O=1*O=1*O=1*O=1*O=1*O=1*O=1<<-@X",
"X@-<<<<*O=1*O=1*O=1*O=1*O=1*O=1*O=1*O=1*O=1*O=1*O=1*O=1*O=1<<-@X",
"X@-<<<<*O=1*O=1*O=1*O=1*O=1*O=1*O=1*O=1*O=1*O=1*O=1*O=1*O=1<<-@X",
"X@-<<<<*O=1*O=1*O=1*O=1*O=1*O=1*O=1*O=1*O=1*O=1*O=1*O=1*O=1<<-@X",
"X@-<<<<*O=1*O=1*O=1*O=1*O=1*O=1*O=1*O=1*O=1*O=1*O=1*O=1*O=1<<-@X",
"X@-<<<<*O=1*O=1*O=1*O=1*O=1*O=1*O=1*O=1*O=1*O=1*O=1*O=1*O=1<<-@X",
"X@-<<<<*O=1*O=1*O=1*O=1*O=1*O=1*O=1*O=1*O=1*O=1*O=1*O=1*O=1<<-@X",
"X@-<<<<*O=1*O=1*O=1*O=1*O=1*O=1*O=1*O=1*O=1*O=1*O=1*O=1*O=1<<-@X",
"X@-<<<<*O=1*O=1*O=1*O=1*O=1*O=1*O=1*O=1*O=1*O=1*O=1*O=1*O=1<<-@X",
"X@-<<<<*o=1*o=1*o=1*o=1*o=1*o=1*o=1*o=1*o=1*o=1*o=1*o=1*o=1<<-@X",
"X@-<<<<;$:1;$:1;$:1;$:1;$:1;$:1;$:1;$:1;$:1;$:1;$:1;$:1;$:<<<-@X",
"X@-<<<<<<<<<<<<<<<<<<<<<<<<<<<<<<<<<<<<<<<<<<<<<<<<<<<<<<<<<<-@X",
"X@-<<<<<<<<<<<<<<<<<<<<<<<<<<<<<<<<<<<<<<<<<<<<<<<<<<<<<<<<<<-@X",
"X@-<<<<<<<<<<<<<<<<<<<<<<<<<<<<<<<<<<<<<<<<<<<<<<<<<<<<<<<<<<-@X",
"X@-1<<<<<<<<<<<<<<<<<<<<<<<<<<<<<<<<<<<<<<<<<<<<<<<<<<<<<<<<1-@X",
"X#&----------------------------------------------------------&#X",
".+#@@@@@@@@@@@@@@@@@@@@@@@@@@@@@@@@@@@@@@@@@@@@@@@@@@@@@@@@@@#+.",
" .XXXXXXXXXXXXXXXXXXXXXXXXXXXXXXXXXXXXXXXXXXXXXXXXXXXXXXXXXXXX. "
};
