/* XPM */
static char *_d44bb5eaca94016c13a0f16c68d340fPzDdOEmGTaGF3G6r[] = {
/* columns rows colors chars-per-pixel */
"64 64 95 2 ",
"   c #B2D9DB",
".  c #B2D9DC",
"X  c #B2DADC",
"o  c #B1D8DA",
"O  c #ABD1D3",
"+  c #AAD1D2",
"@  c #B0D7D9",
"#  c #93B8B8",
"$  c #7B9E9D",
"%  c #7B9E9C",
"&  c #92B7B7",
"*  c #749896",
"=  c #729593",
"-  c #739593",
";  c #739694",
":  c #759796",
">  c #7D9F9E",
",  c #7EA09E",
"<  c #759896",
"1  c #9DBEBD",
"2  c #C0DEDE",
"3  c #C1DEDF",
"4  c #C0DEDF",
"5  c #9EBEBE",
"6  c #C9E6E7",
"7  c #CCE9EA",
"8  c #CBE8E9",
"9  c #CAE7E8",
"0  c #C6E4E5",
"q  c #C6E4E4",
"w  c #B5D6D6",
"e  c #A4C8C8",
"r  c #A4C7C8",
"t  c #A4C7C7",
"y  c #A9CBCC",
"u  c #B5D5D6",
"i  c #A0C4C4",
"p  c #9FC3C3",
"a  c #9EC2C2",
"s  c #C1E0E0",
"d  c #C6E3E4",
"f  c #C7E4E5",
"g  c #C9E7E7",
"h  c #C0DDDE",
"j  c #A2C1C1",
"k  c #8AABA9",
"l  c #8CABAA",
"z  c #8CACAA",
"x  c #8BABAA",
"c  c #A0C0C0",
"v  c #A5C0C0",
"b  c #CEE3E3",
"n  c #C6DBDB",
"m  c #C3D9D9",
"M  c #84A5A4",
"N  c #C6DDDD",
"B  c #D2E7E8",
"V  c #8DADAB",
"C  c #8FAFAE",
"Z  c #92B2B1",
"A  c #C4DCDC",
"S  c #CCE3E3",
"D  c #88A9A8",
"F  c #BAD8D9",
"G  c #C5E3E4",
"H  c #C1DBDB",
"J  c #C8E2E2",
"K  c #89AAA9",
"L  c #83A5A4",
"P  c #BEDADA",
"I  c #C5E0E1",
"U  c #83A5A3",
"Y  c #BBD8D9",
"T  c #C2DFE0",
"R  c #88AAA8",
"E  c #BAD8D8",
"W  c #83A4A3",
"Q  c #B4D2D2",
"!  c #BBD8D8",
"~  c #86A8A6",
"^  c #BBD9D9",
"/  c #C1DFDF",
"(  c #82A4A2",
")  c #A9C5C5",
"_  c #B1CBCC",
"`  c #84A4A3",
"'  c #8CACAB",
"]  c #90AEAD",
"[  c #A2BCBC",
"{  c #9CB7B7",
"}  c #9AB5B5",
"|  c #A1C1C0",
" . c #84A5A3",
".. c #B1D7D9",
"X. c white",
/* pixels */
"                                                                                                                                ",
"                                                                                                                                ",
"                        . X X X X X X X X X X X X X X X X X X X X X X X X X X X X X X X X X X X X X X X X X X X X X X X X X X X ",
"                      o O + + + + + + + + + + + + + + + + + + + + + + + + + + + + + + + + + + + + + + + + + + + + + + + + + + + ",
"                    @ # $ % $ $ $ $ $ $ $ $ $ $ $ $ $ $ $ $ $ $ $ $ $ $ $ $ $ $ $ $ $ $ $ $ $ $ $ $ $ $ $ $ $ $ $ $ $ $ $ $ $ $ ",
"                  @ & * = - - - - - - - - - - - - - - - - - - - - - - - - - - - - - - - - - - - - - - - - - - - - - - - - - - - ",
"                @ & * ; = = = = = = = = = = = = = = = = = = = = = = = = = = = = = = = = = = = = = = = = = = = = = = = = = = = = ",
"              @ & * = : > , , , , , , , , , , , , , , , , , , , , , , , , , , , , , , , , , , , , , , , , , , , , , , , , , , , ",
"            @ & * = < 1 2 3 4 4 4 4 4 4 4 4 4 4 4 4 4 4 4 4 4 4 4 4 4 4 4 4 4 4 4 4 4 4 4 4 4 4 4 4 4 4 4 4 4 4 4 4 4 4 4 4 4 4 ",
"          @ & * = < 5 6 7 7 7 7 7 7 7 7 7 7 7 7 7 7 7 7 7 7 7 7 7 7 7 7 7 7 7 7 7 7 7 7 7 7 7 7 7 7 7 7 7 7 7 7 7 7 7 7 7 7 7 7 ",
"        @ & * = < 5 6 8 8 8 8 8 8 8 8 8 8 8 8 8 8 8 8 8 8 8 8 8 8 8 8 8 8 8 8 8 8 8 8 8 8 8 8 8 8 8 8 8 8 8 8 8 8 8 8 8 8 8 8 8 ",
"      o # * ; : 1 6 8 8 8 8 8 9 0 q q q q q q q q q q q q q q q q q q q q q q q q q q q q q q q q q q q q q q q q q q 0 9 8 8 8 ",
"    . O $ = = > 2 7 8 8 8 8 9 w e r r r r r r r r r r r r r r r r r r r r r r r r r r r r r r r r r r r r r r r r r t y 0 8 8 8 ",
"    X + % - = , 3 7 8 8 8 9 u i p p p p p p p p p p p p p p p p p p p p p p p p p p p p p p p p p p p p p p p p p p a t q 8 8 8 ",
"    X + $ - = , 4 7 8 8 9 u i p p p p p p p p p p p p p p p p p p p p p p p p p p p p p p p p p p p p p p p p p p p p r q 8 8 8 ",
"    X + $ - = , 4 7 8 9 w i p i t r r r r r r r r r r r r r r r r r r r r r r r r r r r r r r r r r r r r r r t i p p r q 8 8 8 ",
"    X + $ - = , 4 7 8 0 e p p t s 0 q q q q q q q q q q q q q q q q q q q q q q q q q q q q q q q q q q q q 0 s t p p r q 8 8 8 ",
"    X + $ - = , 4 7 8 q r p p r 0 7 8 8 8 8 8 8 8 8 8 8 8 8 8 8 8 8 8 8 8 8 8 8 8 8 8 8 8 8 8 8 8 8 8 8 8 8 7 0 r p p r q 8 8 8 ",
"    X + $ - = , 4 7 8 q r p p r q 8 8 8 8 8 8 8 8 8 8 8 8 8 8 8 8 8 8 8 8 8 8 8 8 8 8 8 8 8 8 8 8 8 8 8 8 8 7 0 r p p r q 8 8 8 ",
"    X + $ - = , 4 7 8 q r p p r q 8 8 8 8 8 8 8 8 8 8 8 8 8 8 8 8 8 8 8 8 8 8 8 8 8 8 8 8 8 8 8 8 8 8 9 0 q 0 s t p p r q 8 8 8 ",
"    X + $ - = , 4 7 8 q r p p r q 8 8 8 8 8 8 8 8 8 8 8 8 8 8 8 8 8 8 8 8 8 8 8 8 8 8 8 8 8 8 8 8 8 9 w e r r t i p p r q 8 8 8 ",
"    X + $ - = , 4 7 8 q r p p r q 8 8 8 8 8 8 8 8 8 8 8 8 8 8 8 8 8 8 8 8 8 8 8 8 8 8 8 8 8 8 8 8 9 u i p p p p p p p r q 8 8 8 ",
"    X + $ - = , 4 7 8 q r p p r 0 7 8 8 8 8 8 8 8 8 8 8 8 8 8 8 8 8 8 8 8 8 8 8 8 8 8 8 8 8 8 8 9 u i p p p p p p p a t q 8 8 8 ",
"    X + $ - = , 4 7 8 q r p p t s 0 q q q q q q q q q q q q q q q q q q q q q q q q q q q q q d u i p i t r r r r r t y 0 8 8 8 ",
"    X + $ - = , 4 7 8 q r p p i t r r r r r r r r r r r r r r r r r r r r r r r r r r r r r r t i p p t s 0 q q q q q f 8 7 7 7 ",
"    X + $ - = , 4 7 8 q r p p p p p p p p p p p p p p p p p p p p p p p p p p p p p p p p p p p p p p r 0 7 8 8 8 8 7 g 4 h h h ",
"    X + $ - = , 4 7 8 q t a p p p p p p p p p p p p p p p p p p p p p p p p p p p p p p p p p p p p a t q 8 8 8 8 8 6 j k l z x ",
"    X + $ - = , 4 7 8 0 y t r r r r r r r r r r r r r r r r r r r r r r r r r r r r r r r r r r r r t y 0 8 8 8 8 6 c v b n m m ",
"    X + $ - = , 4 7 8 9 0 q q q q q q q q q q q q q q q q q q q q q q q q q q q q q q q q q q q q q q 0 9 8 8 8 7 3 M N B V C Z ",
"    X + $ - = , 4 7 8 8 8 8 8 8 8 8 8 8 8 8 8 8 8 8 8 8 8 8 8 8 8 8 8 8 8 8 8 8 8 8 8 8 8 8 8 8 8 8 8 8 8 8 8 8 7 2 M A S D F G ",
"    X + $ - = , 4 7 8 8 8 8 8 8 8 8 8 8 8 8 8 8 8 8 8 8 8 8 8 8 8 8 8 8 8 8 8 8 8 8 8 8 8 8 8 8 8 8 8 8 8 8 8 8 7 2 M H J K 2 7 ",
"    X + $ - = , 4 7 8 8 8 8 8 8 8 8 8 8 8 8 8 8 8 8 8 8 8 8 8 8 8 8 8 8 8 8 8 8 8 8 8 8 8 8 8 8 8 8 8 8 8 8 8 8 7 2 L P I K 2 7 ",
"    X + $ - = , 4 7 8 8 8 8 8 8 8 8 8 8 8 8 8 8 8 8 8 8 8 8 8 8 8 8 8 8 8 8 8 8 8 8 8 8 8 8 8 8 8 8 8 8 8 8 8 8 7 2 U Y T R 2 7 ",
"    X + $ - = , 4 7 8 8 8 8 8 8 8 8 8 8 8 8 8 8 8 8 8 8 8 8 8 8 8 8 8 8 8 8 8 8 8 8 8 8 8 8 8 8 8 8 8 8 8 8 8 8 7 2 U E 3 R 4 7 ",
"    X + $ - = , 4 7 8 8 8 8 8 8 8 8 8 8 8 8 8 8 8 8 8 8 8 8 8 8 8 8 8 8 8 8 8 8 8 8 8 8 8 8 8 8 8 8 8 8 8 8 8 8 7 2 W Q ! ~ ^ d ",
"    X + $ - = , 4 7 8 9 0 q q q q q q q q q q q q q q q q q q q q q q q q q q q q q q q q q q q q q q 0 9 8 8 8 7 / ( ) _ ` K ' ",
"    X + $ - = , 4 7 8 0 y t r r r r r r r r r r r r r r r r r r r r r r r r r r r r r r r r r r r r t y 0 8 8 8 8 6 c ] [ { } } ",
"    X + $ - = , 4 7 8 q t a p p p p p p p p p p p p p p p p p p p p p p p p p p p p p p p p p p p p a t q 8 8 8 8 8 6 | M  . . .",
"    X + $ - = , 4 7 8 q r p p p p p p p p p p p p p p p p p p p p p p p p p p p p p p p p p p p p p p r 0 7 8 8 8 8 7 9 3 2 2 2 ",
"    X + $ - = , 4 7 8 q r p p i t r r r r r r r r r r r r r r r r r r r r r r r r r r r r r r t i p p t s 0 q q q q q f 8 7 7 7 ",
"    X + $ - = , 4 7 8 q r p p t s 0 q q q q q q q q q q q q q q q q q q q q q q q q q q q q q d u i p i t r r r r r t y 0 8 8 8 ",
"    X + $ - = , 4 7 8 q r p p r 0 7 8 8 8 8 8 8 8 8 8 8 8 8 8 8 8 8 8 8 8 8 8 8 8 8 8 8 8 8 8 8 9 w i p p p p p p p a t q 8 8 8 ",
"    X + $ - = , 4 7 8 q r p p r q 8 8 8 8 8 8 8 8 8 8 8 8 8 8 8 8 8 8 8 8 8 8 8 8 8 8 8 8 8 8 8 8 9 w i p p p p p p p r q 8 8 8 ",
"    X + $ - = , 4 7 8 q r p p r q 8 8 8 8 8 8 8 8 8 8 8 8 8 8 8 8 8 8 8 8 8 8 8 8 8 8 8 8 8 8 8 8 8 9 w e r r t i p p r q 8 8 8 ",
"    X + $ - = , 4 7 8 q r p p r q 8 8 8 8 8 8 8 8 8 8 8 8 8 8 8 8 8 8 8 8 8 8 8 8 8 8 8 8 8 8 8 8 8 8 9 0 q 0 s t p p r q 8 8 8 ",
"    X + $ - = , 4 7 8 q r p p r q 8 8 8 8 8 8 8 8 8 8 8 8 8 8 8 8 8 8 8 8 8 8 8 8 8 8 8 8 8 8 8 8 8 8 8 8 8 7 0 r p p r q 8 8 8 ",
"    X + $ - = , 4 7 8 q r p p r 0 7 8 8 8 8 8 8 8 8 8 8 8 8 8 8 8 8 8 8 8 8 8 8 8 8 8 8 8 8 8 8 8 8 8 8 8 8 7 0 r p p r q 8 8 8 ",
"    X + $ - = , 4 7 8 0 e p p t s 0 q q q q q q q q q q q q q q q q q q q q q q q q q q q q q q q q q q q q 0 s t p p r q 8 8 8 ",
"    X + $ - = , 4 7 8 9 w i p i t r r r r r r r r r r r r r r r r r r r r r r r r r r r r r r r r r r r r r r t i p p r q 8 8 8 ",
"    X + $ - = , 4 7 8 8 9 w i p p p p p p p p p p p p p p p p p p p p p p p p p p p p p p p p p p p p p p p p p p p p r q 8 8 8 ",
"    X + % - = , 3 7 8 8 8 9 w i p p p p p p p p p p p p p p p p p p p p p p p p p p p p p p p p p p p p p p p p p p a t q 8 8 8 ",
"    . O $ = = > 2 7 8 8 8 8 9 w e r r r r r r r r r r r r r r r r r r r r r r r r r r r r r r r r r r r r r r r r r t y 0 8 8 8 ",
"      o # < ; : 1 6 8 8 8 8 8 9 0 q q q q q q q q q q q q q q q q q q q q q q q q q q q q q q q q q q q q q q q q q q 0 9 8 8 8 ",
"        ..# < = < 5 6 8 8 8 8 8 8 8 8 8 8 8 8 8 8 8 8 8 8 8 8 8 8 8 8 8 8 8 8 8 8 8 8 8 8 8 8 8 8 8 8 8 8 8 8 8 8 8 8 8 8 8 8 8 ",
"          ..# < = < 5 6 7 7 7 7 7 7 7 7 7 7 7 7 7 7 7 7 7 7 7 7 7 7 7 7 7 7 7 7 7 7 7 7 7 7 7 7 7 7 7 7 7 7 7 7 7 7 7 7 7 7 7 7 ",
"            ..# < = < 1 2 3 4 4 4 4 4 4 4 4 4 4 4 4 4 4 4 4 4 4 4 4 4 4 4 4 4 4 4 4 4 4 4 4 4 4 4 4 4 4 4 4 4 4 4 4 4 4 4 4 4 4 ",
"              ..# < = : > , , , , , , , , , , , , , , , , , , , , , , , , , , , , , , , , , , , , , , , , , , , , , , , , , , , ",
"                ..# < ; = = = = = = = = = = = = = = = = = = = = = = = = = = = = = = = = = = = = = = = = = = = = = = = = = = = = ",
"                  ..# < = - - - - - - - - - - - - - - - - - - - - - - - - - - - - - - - - - - - - - - - - - - - - - - - - - - - ",
"                    ..# $ % $ $ $ $ $ $ $ $ $ $ $ $ $ $ $ $ $ $ $ $ $ $ $ $ $ $ $ $ $ $ $ $ $ $ $ $ $ $ $ $ $ $ $ $ $ $ $ $ $ $ ",
"                      o O + + + + + + + + + + + + + + + + + + + + + + + + + + + + + + + + + + + + + + + + + + + + + + + + + + + ",
"                        . X X X X X X X X X X X X X X X X X X X X X X X X X X X X X X X X X X X X X X X X X X X X X X X X X X X ",
"                                                                                                                                ",
"                                                                                                                                "
};
