/* XPM */
static char *glass4_resized[] = {
/* columns rows colors chars-per-pixel */
"64 64 142 2 ",
"   c #104167",
".  c #104168",
"X  c #104269",
"o  c #114269",
"O  c #114369",
"+  c #11426A",
"@  c #11436A",
"#  c #12436A",
"$  c #12436B",
"%  c #12446B",
"&  c #12446C",
"*  c #13456C",
"=  c #13456D",
"-  c #13466D",
";  c #13466E",
":  c #14466E",
">  c #14476F",
",  c #154870",
"<  c #154871",
"1  c #164971",
"2  c #164972",
"3  c #164A72",
"4  c #174A73",
"5  c #174B73",
"6  c #174B74",
"7  c #184B74",
"8  c #184C75",
"9  c #184C76",
"0  c #184D76",
"q  c #194D76",
"w  c #194E77",
"e  c #1A4E78",
"r  c #1A4F79",
"t  c #1B4F79",
"y  c #1B5079",
"u  c #1B507A",
"i  c #1C517B",
"p  c #1C527C",
"a  c #1D537D",
"s  c #1E547E",
"d  c #1E547F",
"f  c #1E557F",
"g  c #1F5580",
"h  c #1F5681",
"j  c #205682",
"k  c #205782",
"l  c #215883",
"z  c #215884",
"x  c #215984",
"c  c #225985",
"v  c #225A86",
"b  c #235A86",
"n  c #235B87",
"m  c #235B88",
"M  c #235C88",
"N  c #245C88",
"B  c #245C89",
"V  c #245D89",
"C  c #255D8A",
"Z  c #255E8A",
"A  c #255E8B",
"S  c #265E8B",
"D  c #265F8B",
"F  c #265F8C",
"G  c #27608D",
"H  c #27608E",
"J  c #27618E",
"K  c #28618E",
"L  c #28618F",
"P  c #28628F",
"I  c #286290",
"U  c #296290",
"Y  c #296391",
"T  c #296491",
"R  c #2A6492",
"E  c #2A6493",
"W  c #2A6593",
"Q  c #2B6593",
"!  c #2B6594",
"~  c #2B6694",
"^  c #2B6695",
"/  c #2C6695",
"(  c #2C6795",
")  c #2C6796",
"_  c #2C6896",
"`  c #2D6897",
"'  c #2D6998",
"]  c #2E6998",
"[  c #2E6999",
"{  c #2E6A99",
"}  c #2E6A9A",
"|  c #2F6A9A",
" . c #2F6B9A",
".. c #2F6B9B",
"X. c #2F6C9B",
"o. c #306C9B",
"O. c #306C9C",
"+. c #306D9C",
"@. c #306D9D",
"#. c #316D9D",
"$. c #316D9E",
"%. c #316E9E",
"&. c #316E9F",
"*. c #326F9F",
"=. c #326FA0",
"-. c #3270A0",
";. c #3370A1",
":. c #3371A1",
">. c #3371A2",
",. c #3471A2",
"<. c #3472A2",
"1. c #3472A3",
"2. c #3472A4",
"3. c #3573A4",
"4. c #3573A5",
"5. c #3574A5",
"6. c #3674A5",
"7. c #3674A6",
"8. c #3675A6",
"9. c #3675A7",
"0. c #3775A7",
"q. c #3776A7",
"w. c #3776A8",
"e. c #3777A8",
"r. c #3777A9",
"t. c #3877A9",
"y. c #3878AA",
"u. c #3978AA",
"i. c #3978AB",
"p. c #3979AB",
"a. c #3979AC",
"s. c #3A79AC",
"d. c #3A7AAC",
"f. c #3A7AAD",
"g. c #3A7BAD",
"h. c #3B7BAD",
"j. c #3A7BAE",
"k. c #3B7BAE",
"l. c #3B7BAF",
"z. c #3B7CAE",
"x. c #3B7CAF",
"c. c #3C7CAF",
/* pixels */
"+ @ + + + + + + + + @ + + + + o o @ @ + @ @ + o o O O @ o + @ @ + + + + + + @ o % R k.k.k.k.k.k.k.k.k.k.k.x.1.9 ! z.j.k.k.C o O ",
"+ @ + + + o + @ @ + + + @ + O + + + @ + + + + + @ + + + + + @ + o + + O o + + X z p.k.k.k.k.k.k.k.k.k.k.l.p.k l p.l.k.x. .> o + ",
"+ @ @ @ @ @ + + @ + + + + + @ + + + + + o + + + @ + + O @ + @ O + + + O O @ X t 8.l.h.k.k.k.h.k.k.k.k.k.k.K u 8.l.k.x.3.9 X + + ",
"+ @ + + @ @ o + @ + + + @ + O O + + + + o + @ @ + + @ + + o o @ + o + + + X 2 &.x.j.k.k.k.k.k.k.k.k.k.x...q $.x.k.k.y.f X + @ @ ",
"@ @ + + + @ + + + + @ O @ + + + + + @ + O O + + O + @ @ + o + + o + + o o * ( x.k.k.k.k.k.k.k.k.k.k.x.4.r Y z.k.l.k.F @ + o + + ",
"@ @ + + + @ @ @ + @ @ + + o + + + + + o + + o + O + @ @ o + + + + + + o + C f.k.k.h.k.k.k.k.k.k.k.l.p.k c s.k.j.x.] - o + + + + ",
"@ + + + + + + + + @ + + o + + @ + + + + + @ o + O @ + + + + + + + + o X f y.l.k.k.k.k.k.k.k.k.k.z.k.J i 9.z.j.l.1.8 X + @ @ @ + ",
"+ + + + + + @ + o + + + + + o @ o o + + + + O o o + @ + + o o o + + X q 3.z.k.k.k.k.k.k.k.j.j.j.x. .w *.z.k.l.t.s X @ + + + + o ",
"+ + + O + @ + + @ + + + + o + @ + @ + @ @ + + + @ @ @ @ @ @ + @ O o > X.x.k.k.k.k.z.k.k.h.j.h.k.5.t W x.k.k.j.C + o + @ + @ @ + ",
"o O @ + @ O + + + + + + @ + + + + + O @ @ @ + O @ + + + + + @ @ o % Y z.k.k.k.k.k.k.k.k.k.k.k.d.c b f.k.j.x.` = o + + + + @ @ @ ",
"@ + @ o + + o + + + + @ + @ O + o O + + @ o o + @ O + + @ O @ + o v d.k.k.k.k.k.k.k.k.k.k.k.x.` d e.z.k.x.>.5 X + + o o o + @ + ",
"@ @ @ + + o @ + o @ @ + + O O + o o + + @ o @ o + + + o + @ @ X i w.z.k.j.j.k.k.k.j.k.k.k.x.7.g =.x.k.l.e.p X @ + + + + + o o + ",
"+ + + @ + + + o o + @ @ + o + @ + + + + + + @ + o + @ + + @ X 5 ;.x.k.k.j.j.k.k.k.k.k.k.k.g.C ^ x.k.k.f.N + o + O + @ + @ O O o ",
"+ @ + + + o O + + O + + + + @ @ + + + + + O + + + @ + + @ o - ` x.k.k.f.i.k.k.k.k.k.k.k.z.{ G f.k.k.z.( * o o + @ @ + + @ + + + ",
"+ @ + + + O @ @ @ + + o o @ + @ + + + + + O + + + + @ + + # F h.k.k.h.8.s.k.k.k.k.k.k.x.9.F r.z.k.c.=.3 X @ + o + + o @ @ + + + ",
"+ + + + @ + @ + @ O O + @ + O + + + o + @ + + @ O + @ o X j u.k.k.z.5.8.k.h.j.h.j.k.k.f.Q :.x.k.z.w.i X @ + @ o + @ + O o o + + ",
"+ O O + + o + + + + o + @ + + o + + + + + @ @ @ + O @ X e 6.z.k.x.8.&.k.k.k.j.h.k.k.z.%.X.l.k.l.d.n o + + + + O o + + o @ + @ + ",
"+ O @ @ @ @ + + + + o + O O + o + + o + + + + + o + X , @.x.k.z.y.[ u.l.k.k.k.k.k.l.t.X.d.k.k.x.! & o + o + O O O @ O @ @ O O + ",
"@ @ @ @ + + + @ O @ O + @ + + o @ + + + @ @ @ + + o & Q l.k.k.f._ 1.z.h.k.k.k.h.k.g.:.y.z.k.c.%.1 o + + + + + o o + O + + o + @ ",
"@ + + + @ + @ + O + + + @ @ + + @ + + + + O + + + o N f.z.k.z.{ ] l.k.k.k.h.k.k.k.w.w.l.k.k.9.y X + @ @ O o + @ + @ @ + + + + + ",
"+ + + o + @ O + @ + + @ + @ @ @ @ + + O o o + @ X a t.l.j.x.-.H a.l.k.k.k.k.k.k.f.t.h.k.k.d.c o + o O @ + + @ @ O + @ @ + @ o o ",
"@ + @ o + @ o + @ + o o + + + + o @ @ + + + + o 8 <.x.k.z.q.M 3.x.j.k.k.k.k.k.k.g.h.k.k.z.E % o + + o + + + + + + o + + + + + + ",
"+ + + @ @ + o + O O @ + + + + + o @ @ @ + @ O o P c.k.k.p.B ' x.k.k.k.k.k.k.k.k.k.k.k.x.@., X + + + o o @ o + + + @ @ + + + + @ ",
"+ + o + + o O + + + + + + + @ + + @ + o o o + @ u c x x d C g.k.k.k.k.k.k.k.h.k.k.k.x.7.e X + @ @ + o + @ + + + @ + @ o @ @ + + ",
"O o o o @ O O + @ o + + o o + O o + + @ + @ + + X . .   e 0.x.k.k.k.k.k.k.k.j.k.k.z.s.z X + O + + + + @ O o + o + O @ @ O @ + @ ",
"+ o + @ @ o O + @ @ + + + + + O + @ @ @ + + + + + + o > o.x.k.k.k.k.k.l.k.k.k.j.k.k.Y $ o @ @ + + o o @ @ + + O + @ @ + o + + + ",
"+ + + O + + + @ @ + o + @ @ + @ @ @ @ + o + + + o o @ F k.k.k.l.k.j.k.k.l.k.k.k.x...> o + + @ @ + + o + @ @ o o @ @ @ @ O o o + ",
"o + + @ @ @ o + @ @ + + + @ + + @ @ + O o + + o + X p t.l.k.k.l.k.k.k.k.k.k.k.z.5.w X @ @ o + @ + + o o + O + @ o + + + + @ o o ",
"o o + + + @ @ + @ @ o o O + + @ @ + + + @ + O o X < &.x.k.k.k.k.k.k.l.k.k.k.k.p.k X + @ o + + + o + + + + + O + + O O + + @ o o ",
"+ + + + + @ @ + @ @ + + + + + @ @ + + @ @ + O o # U l.k.k.k.k.k.j.k.k.k.j.l.k.J # o @ O + O + o o + + + + o o + + @ O O O + @ + ",
"@ @ + + + o + + + + + + + + @ + @ + @ + + + o X f i.l.l.k.k.k.k.k.k.k.k.k.x. .: o + + @ O + O + + + @ + + + + O + + + + @ @ @ + ",
"@ + + @ + + + + o o @ + o o @ o + @ + + @ @ X 4 >.x.k.k.k.k.k.k.k.k.k.k.x.3.0 X @ + + @ O @ @ + + @ + + o @ @ @ @ + + @ @ + O O ",
"+ @ @ + + + + o o + @ + + + @ + + @ + O + o & ! z.k.j.k.k.k.k.k.k.k.k.l.i.h X @ @ + + o + @ + o + + + O o + + @ @ + + + @ @ + + ",
"@ + @ O o o + + + + @ @ + @ + + O + o O O X l d.k.k.k.k.k.k.k.k.k.k.h.h.A X . . X + @ + + + @ @ + + @ @ o o @ @ + @ + @ @ @ @ o ",
"O @ + + + + + @ @ @ @ @ @ + + o + @ o + X 9 5.l.j.k.k.k.k.k.k.k.k.k.l. .l x x c u o + + + + @ + + @ @ + O @ + + + O O @ @ + + o ",
"+ O + @ + + + + o + + + o + @ @ + @ + o = ` x.h.k.k.k.k.j.k.k.k.l.x.<.U i.k.l.c.P o + @ + @ + o + @ + + @ + + + @ o + + + + + + ",
"+ @ + + O + + + + @ O + O @ + + + + + o n f.l.k.k.h.k.k.k.k.k.k.k.t.L 8.l.k.x.1.8 o o o + + + + + + @ o + @ O + + o + @ + + + + ",
"+ + O + O + + @ @ + + + + @ + @ @ + X r 0.l.k.k.f.f.k.k.k.k.k.k.d.T &.x.k.z.y.d X o @ + @ @ + + @ + @ + + + + + o o + O + + o o ",
"+ + o + o + + + @ + @ o O + + O @ o : ..x.k.z.s.y.h.h.k.k.k.k.l.{ ( k.k.k.k.F @ o + + + + @ o + + @ @ + + o + O o O O o + @ + o ",
"+ @ + + + + + + + o + + @ @ @ @ + + S j.k.k.h.0.d.k.j.k.k.k.x.:.P p.k.k.z.[ ; o @ + + + o + + @ + o + + @ O + o O + O O @ @ @ + ",
"O O + @ + + + o + o @ @ + + + + X i r.l.k.l.q.t.k.h.k.k.k.z.w.G 7.x.k.c.1.7 X + + + + + O O + @ + o + + + + @ + @ + o O + o + + ",
"o + + @ + @ + + + + + @ @ @ @ X , &.x.k.l.i.6.k.k.j.k.h.k.d.I %.x.k.k.y.d X + o + O @ + + + + + + @ + @ + + + + + @ + @ + O + + ",
"O O @ + + @ + O + + @ + @ + + # L k.k.k.f.>.p.k.k.k.k.k.l.` / k.k.k.j.F @ o + + + o O o + + + + @ @ + O + + + + + + @ @ + o o + ",
"O + @ + + + + + + @ + + + + X d u.l.k.z.1.6.k.k.k.k.k.x.-.J p.k.k.x.[ - o o O + + + o o + + O O @ + + O o + + + o + + + o o o + ",
"+ + @ @ + o @ + + + + o + X 4 >.x.h.k.w.=.j.k.k.k.k.x.0.F 8.x.k.z.<.7 X @ + O + O o + + + + O @ + + @ @ o + + o + + + + + + + + ",
"+ + @ + + + o o + @ + + O % E z.l.k.d.+.u.k.k.k.k.z.s.H #.x.k.z.u.d X o @ + O o o + + + O + o + + + + + + @ @ O o + + o O + + + ",
"+ + + o + @ + + + + @ + X l a.k.z.z.&.,.z.k.k.k.k.k.( ~ k.j.k.j.F @ o + + o O o o O + + O + + + + @ + @ + + + o @ + O @ + + + + ",
"+ + + O + + + @ @ + @ X 8 3.z.k.x.6.| g.k.k.k.k.x.&.G p.k.k.z.] - o O o + + @ @ + o + o + @ + + + @ @ @ + @ @ + @ + O @ + + + o ",
"@ + + O + @ + O @ @ o * ` x.k.k.p.` t.z.k.j.j.l.8.C 7.z.k.x.1.8 X + @ o + @ @ + + + @ + + + + @ @ O @ @ @ @ + + @ + @ @ @ @ + + ",
"o O + + @ @ + @ @ + X b f.k.k.z. .-.z.k.k.k.k.s.F #.x.k.l.u.d X @ @ + o o + + + + + + + + + + + @ @ @ @ + @ + @ @ @ + @ + + + + ",
"o o + + + + + + @ X e 8.l.k.z.,.( g.k.k.k.k.k.~ ! k.k.k.j.F @ + @ @ @ + + + + + o + + @ + + + + @ @ + + + + + + @ + o + @ O @ + ",
"+ + + + @ + + @ o :  .x.k.l.u.R w.k.k.k.k.z.$.F p.l.k.x.[ ; o + + + o @ + + @ + @ @ @ + o @ + + @ + + @ + + @ + @ @ + O + o O O ",
"+ @ @ @ O + o o @ Z h.l.k.k.) $.x.z.z.k.z.5.N 8.l.k.x.1.8 X + @ @ + + @ @ + + @ @ @ @ @ @ + @ o o + + + o O + o + + o o + O + o ",
"+ + + + + @ @ X i t.x.k.x.*.R g.k.l.h.k.p.Z $.x.k.k.y.d X o o @ @ @ + + O + + @ + @ @ @ + + @ + o + + o + @ + + + + + O o + + O ",
"+ @ @ + o O o , %.x.l.k.t.F 8.x.k.k.k.k.E Q z.k.k.h.F @ o o + O + O @ O O + + + + + o O @ + + @ + + + + @ @ + O @ + + @ O o O @ ",
"@ @ @ + + + # J k.k.k.h.Y ..z.k.k.k.z.O.D a.k.k.x.] ; o o o @ @ @ + + + o o + o + o o + @ + + @ + O O + @ @ + o @ + + @ + + @ O ",
"+ O @ @ @ X d u.k.k.x.+.L f.l.l.k.z.3.n 7.z.k.x.1.8 X @ + + + + + @ o + + o o o O + + + @ + + @ + + + + + + + + @ @ + O o + + + ",
"o + @ @ X 3 ;.x.h.x.9.n 8.z.k.k.z.i.V #.z.j.k.y.d X + @ @ O + o + @ @ o + + + @ @ + O + + + + o + + + o o + @ @ + @ + + + @ @ + ",
"o o + o $ E x.k.k.f.F [ x.k.k.k.j.Y W k.l.k.g.F @ o @ + + @ + o o + @ @ + o + @ @ + o O @ @ @ + + + @ + O + + o + @ @ + + @ @ @ ",
"o o + X k a.k.k.x.[ A f.k.k.k.z.} Z a.k.k.x.] - o o @ + @ @ + + O O O @ @ O + o O o o + @ @ @ + o + + @ @ + + + O @ @ + + + @ + ",
"o + X 6 2.z.k.x.4.z 7.l.k.k.z.1.v 8.k.k.x.1.7 X + + + + + + o + @ + + @ + + + + o o o + + @ O o o O + @ + O + @ O + @ o + @ @ @ ",
"@ o * ) l.k.k.d.m _ x.k.k.z.y.n $.x.h.l.y.d X + o @ + + @ + @ + + + + O O + + + @ + o + + @ O @ @ + + + o o o O O O O o + o + O ",
"@ + v f.k.k.z.~ m d.k.k.k.k.P W l.h.k.h.S @ o @ + + + + @ + @ O @ + + @ O + o O @ + + O + @ + @ + + + @ O + O o + + + + + o + + ",
"X 2 2.z.k.l.5.d <.x.k.k.x.X.n p.k.k.x.O.: o + + o + O + @ @ @ + @ + + @ @ + + + O O + O @ @ o + @ @ O @ O O O + O + O O O O @ + "
};
