/* XPM */
static char *hallway_metal_resized[] = {
/* columns rows colors chars-per-pixel */
"64 64 167 2 ",
"   c #2D4F5B",
".  c #2E505C",
"X  c #2F505C",
"o  c #2F505D",
"O  c #2F515D",
"+  c #3A5C67",
"@  c #355C6A",
"#  c #365C6A",
"$  c #365C6B",
"%  c #365D6B",
"&  c #3C5E68",
"*  c #3C5E69",
"=  c #3D5F69",
"-  c #3E5F6A",
";  c #3E606B",
":  c #3F606B",
">  c #3F616B",
",  c #40616C",
"<  c #40626C",
"1  c #41626D",
"2  c #446A76",
"3  c #446A77",
"4  c #456B77",
"5  c #456B78",
"6  c #466C78",
"7  c #466C79",
"8  c #466D79",
"9  c #476D79",
"0  c #476D7A",
"q  c #486E7A",
"w  c #48717A",
"e  c #48727B",
"r  c #4E737E",
"t  c #4B747D",
"y  c #4C757E",
"u  c #4E747E",
"i  c #4E7882",
"p  c #507580",
"a  c #507680",
"s  c #517681",
"d  c #507782",
"f  c #517782",
"g  c #527782",
"h  c #517883",
"j  c #527883",
"k  c #537883",
"l  c #527983",
"z  c #527884",
"x  c #537884",
"c  c #527984",
"v  c #537984",
"b  c #517B84",
"n  c #547984",
"m  c #547A84",
"M  c #547A85",
"N  c #547A86",
"B  c #547B86",
"V  c #557B86",
"C  c #567B87",
"Z  c #517C84",
"A  c #517C85",
"S  c #527C85",
"D  c #557C86",
"F  c #557C87",
"G  c #567C87",
"H  c #567C88",
"J  c #567D88",
"K  c #577D88",
"L  c #577E88",
"P  c #587E89",
"I  c #587F89",
"U  c #587F8A",
"Y  c #597F8A",
"T  c #5A808B",
"R  c #648991",
"E  c #658A92",
"W  c #658B93",
"Q  c #668C95",
"!  c #678C95",
"~  c #678D95",
"^  c #678D96",
"/  c #688D94",
"(  c #698D95",
")  c #688E96",
"_  c #698E96",
"`  c #688E97",
"'  c #698E97",
"]  c #698F97",
"[  c #6A8E96",
"{  c #6A8F97",
"}  c #698F98",
"|  c #6A8F98",
" . c #6A9098",
".. c #6B9098",
"X. c #6A9099",
"o. c #6B9099",
"O. c #6B9199",
"+. c #6B919A",
"@. c #6C9199",
"#. c #6C919A",
"$. c #6C929A",
"%. c #6D929A",
"&. c #6C929B",
"*. c #6D929B",
"=. c #6D939B",
"-. c #6E929A",
";. c #6E929B",
":. c #6E939B",
">. c #6D939C",
",. c #6E939C",
"<. c #6D949C",
"1. c #6E949C",
"2. c #6F949C",
"3. c #6E949D",
"4. c #6F949D",
"5. c #6E959D",
"6. c #6F959D",
"7. c #6F969D",
"8. c #6F959E",
"9. c #6F969E",
"0. c #70959D",
"q. c #70959E",
"w. c #70969E",
"e. c #71969E",
"r. c #71979E",
"t. c #70969F",
"y. c #71969F",
"u. c #70979F",
"i. c #71979F",
"p. c #72979F",
"a. c #72989F",
"s. c #7197A0",
"d. c #7297A0",
"f. c #7198A0",
"g. c #7298A0",
"h. c #7398A0",
"j. c #7399A0",
"k. c #7298A1",
"l. c #7398A1",
"z. c #7299A1",
"x. c #7399A1",
"c. c #7399A2",
"v. c #739AA2",
"b. c #7499A1",
"n. c #749AA1",
"m. c #7499A2",
"M. c #749AA2",
"N. c #759AA2",
"B. c #759BA2",
"V. c #759AA3",
"C. c #759BA3",
"Z. c #769BA3",
"A. c #769CA3",
"S. c #769BA4",
"D. c #769CA4",
"F. c #779CA4",
"G. c #779DA4",
"H. c #779CA5",
"J. c #779DA5",
"K. c #789DA5",
"L. c #789DA6",
"P. c #789EA6",
"I. c #799EA6",
"U. c #799EA7",
"Y. c #799FA7",
"T. c #7A9EA7",
"R. c #7A9FA7",
/* pixels */
"A A Z Z Z b b b b b b b Z b b Z Z b b Z Z A A A A A A A A A t w e y S A A S S S S S S S S S S S S S S S S S S S S S S S S S S S ",
"5.5.3.3.3.<.<.<.>.<.>.<.<.<.<.1.3.3.3.5.5.5.6.6.6.8.8.8.8.X.+   . & +.w.q.w.u.i.i.i.i.s.f.f.f.s.s.f.f.f.f.f.f.f.k.k.z.l.z.z.x.c.",
"c.c.x.x.x.l.g.h.l.h.g.g.g.h.h.l.x.c.b.M.m.b.m.M.m.M.M.M.M.7.8 # $ 0 t.V.V.Z.S.S.D.D.D.F.J.J.F.D.F.H.J.J.J.J.J.K.L.L.P.I.I.U.U.U.",
"x.x.l.l.l.x.k.g.g.d.g.d.d.g.l.l.l.x.b.m.m.m.b.n.M.m.b.m.b.x.t.F G i.n.M.V.C.Z.D.D.D.D.D.D.D.D.D.D.H.H.J.H.H.J.K.K.L.P.P.I.I.I.U.",
"n.b.x.x.x.x.h.h.d.d.d.g.g.g.l.l.x.m.m.m.m.M.m.m.M.n.b.m.c.l.m.Y Y N.b.m.N.C.Z.S.D.S.D.D.D.D.D.D.D.H.J.J.J.J.K.L.L.P.P.I.I.I.U.U.",
"M.M.m.n.c.x.h.g.g.g.d.k.x.x.x.x.x.M.m.b.m.M.m.m.m.b.x.l.l.k.x.U U M.c.c.M.N.V.C.Z.D.D.D.F.F.F.F.F.H.J.J.K.K.L.L.L.P.P.I.I.U.U.Y.",
"N.N.M.m.m.x.l.h.k.h.l.x.c.b.b.x.x.M.m.m.m.m.b.x.b.x.x.l.k.g.x.I U b.x.c.m.M.N.C.Z.Z.D.D.F.F.F.F.H.H.J.J.J.K.L.L.L.P.P.I.U.U.U.T.",
"N.N.N.N.M.m.v.x.x.c.c.m.m.m.m.b.b.M.m.b.m.m.m.c.c.b.l.h.g.d.l.I Y c.l.x.x.m.M.V.C.Z.D.D.D.F.G.F.H.H.H.J.K.K.K.L.P.P.I.U.U.U.U.T.",
"B.B.N.N.M.M.m.x.x.c.b.c.b.b.m.m.m.M.M.m.m.M.m.c.x.x.l.l.d.i.-.k x ;.d.h.l.x.m.M.V.V.Z.D.D.F.H.H.J.J.J.K.K.K.K.L.P.P.I.U.U.U.Y.R.",
"N.B.N.N.M.m.m.b.x.x.x.l.x.m.b.m.M.m.m.m.M.M.m.b.x.x.l.k.d.>., o o , ,.g.h.l.c.m.M.N.C.Z.S.F.H.H.H.J.K.K.L.L.L.P.I.I.U.U.U.U.Y.T.",
"V.N.N.N.M.M.M.b.n.b.c.l.x.m.m.m.m.b.c.m.m.m.m.c.x.x.h.g.g.1.9 # # 7 >.g.g.k.l.c.M.N.C.C.S.D.F.H.J.K.K.K.L.L.L.P.P.I.U.U.U.U.Y.R.",
"V.V.N.M.M.m.M.n.c.m.x.l.x.m.M.M.m.x.x.c.v.b.m.b.c.x.h.g.d.d.4.N N ,.e.p.g.k.k.l.b.N.V.C.Z.D.D.H.J.J.K.J.K.L.L.P.P.I.I.U.U.U.Y.T.",
"C.V.N.M.m.n.m.c.x.c.x.x.x.c.m.M.m.b.x.x.x.c.b.b.b.x.l.g.p.i.d.L K r.w.p.g.g.g.l.c.M.N.V.C.Z.D.D.G.J.J.J.J.K.L.P.I.I.I.U.Y.U.Y.T.",
"V.V.N.M.M.M.b.x.x.x.l.l.j.x.c.m.m.m.b.m.c.x.c.c.x.l.k.d.i.e.y.K K e.q.i.g.g.g.l.x.n.M.M.N.V.Z.S.D.F.H.H.J.K.L.P.I.I.I.U.U.Y.R.T.",
"C.V.N.M.M.M.m.x.x.x.x.l.j.l.n.m.m.m.m.M.m.c.b.m.x.l.g.d.i.e.i.K J w.8.e.p.g.k.l.x.c.c.m.M.B.C.S.D.D.F.H.J.J.L.P.P.I.U.U.U.Y.R.R.",
"C.V.N.M.N.N.m.m.b.c.x.x.x.x.n.M.M.M.M.M.m.m.m.m.x.k.k.d.i.e.p.L K t.q.e.i.d.g.h.l.x.c.m.M.V.C.Z.S.D.D.H.J.J.K.L.P.I.U.U.U.U.Y.R.",
"Z.C.N.N.N.N.M.m.b.b.x.x.x.x.c.m.M.m.m.M.m.m.x.b.x.g.d.p.y.t.@.g g ..q.w.e.i.d.g.g.j.x.c.b.M.N.V.C.S.D.D.F.J.J.L.P.I.I.U.U.U.Y.R.",
"S.C.B.N.N.N.M.m.b.m.m.c.x.x.x.b.c.c.m.m.b.c.x.x.x.h.d.i.e.$.> o o : +.w.w.y.i.i.d.h.x.l.x.m.N.V.B.Z.S.S.F.H.J.L.P.I.I.U.U.Y.Y.R.",
"Z.C.V.N.V.N.M.M.M.M.M.b.b.m.c.c.x.x.c.m.M.m.c.c.l.k.g.i.w.#.6 # # 5 +.q.q.y.i.y.i.g.g.h.x.b.M.N.V.C.S.D.D.F.J.K.L.P.I.U.U.U.U.U.",
"D.S.C.V.V.N.B.N.M.M.m.m.m.m.m.b.x.x.x.b.m.m.b.x.l.g.d.i.q.4.O.z c +.1.4.8.t.i.y.i.s.d.d.h.x.c.M.N.V.Z.D.D.F.H.J.L.L.P.I.U.U.U.U.",
"D.D.Z.C.C.C.V.B.N.M.M.M.N.M.m.m.x.l.l.x.x.b.b.x.l.g.p.e.q.4.2.D D 1.:.1.4.6.w.e.y.y.y.p.d.g.x.m.M.N.Z.S.D.H.J.J.L.L.L.P.I.U.U.U.",
"D.D.S.S.C.V.V.V.N.M.M.N.N.M.M.m.x.x.l.x.l.x.x.x.l.g.i.w.6.4.6.F V 1.=.>.1.1.6.0.w.w.w.i.s.g.l.x.m.M.V.C.S.F.H.J.K.K.L.L.P.I.U.U.",
"F.F.F.D.Z.C.C.V.N.M.M.V.N.N.M.M.n.x.x.l.l.l.x.x.l.g.y.q.4.1.1.D V ,.*.*.=.=.1.4.6.8.w.i.d.d.g.l.x.m.M.V.Z.D.H.H.J.K.L.L.P.I.I.U.",
"G.H.H.D.D.A.Z.B.N.M.M.V.C.V.V.N.M.c.x.h.h.l.x.l.h.g.t.6.1.:.1.V V =.#.%.=.=.,.4.6.8.w.y.i.p.d.h.x.b.m.N.C.D.F.J.J.J.K.L.L.P.I.U.",
"J.H.F.F.D.D.Z.C.V.B.N.V.V.B.B.B.M.c.l.h.l.l.l.h.g.p.w.6.3.,._ p p / O.#.$.*.=.2.4.8.w.y.y.i.s.g.x.x.M.B.C.Z.S.F.H.J.J.L.L.L.I.I.",
"J.J.F.G.F.D.D.Z.C.Z.C.V.V.V.B.N.M.x.h.l.l.h.g.g.g.i.w.4.1.| ; X X = ~ +.#.#.=.1.3.6.q.w.e.i.i.d.h.x.m.N.C.C.Z.D.G.J.K.L.L.L.P.I.",
"J.H.F.H.F.D.D.S.Z.S.Z.V.V.V.N.N.m.x.l.h.g.g.g.d.s.y.q.4.,.} 4 @ @ 2 ~ O.+.$.*.>.,.1.6.6.q.e.y.i.d.l.b.N.V.C.Z.D.F.H.J.K.K.L.P.I.",
"J.H.D.F.F.D.D.D.D.D.Z.C.V.N.M.N.M.c.x.k.d.d.d.d.i.t.6.3.>.$.` f d ^ ] | o.#.$.=.=.,.1.4.6.q.e.i.g.j.x.M.V.V.C.S.D.F.H.J.K.L.P.I.",
"J.J.D.D.F.D.D.D.D.D.Z.C.V.V.N.M.m.m.x.h.d.p.i.i.y.q.4.:.*.O...v v  .' ] | ..O.$.=.=.<.4.6.6.q.e.i.g.j.c.M.M.N.V.Z.S.F.H.J.K.L.P.",
"K.J.H.F.F.F.D.D.D.S.Z.B.V.V.N.N.M.m.x.h.p.y.t.e.w.4.1.:.*.O. .l j ] ) ` ] {  .O.#.%.=.<.1.6.q.t.y.y.g.l.x.m.M.N.C.Z.D.F.H.J.K.L.",
"L.K.J.H.H.G.F.F.D.S.S.C.B.N.M.N.M.m.l.g.i.t.w.q.8.1.,.=.&.o. .l h ` ^ ) ] { {  .o.O.$.*.,.4.6.q.w.w.i.g.h.x.b.M.V.C.D.D.G.J.K.K.",
"P.L.K.J.H.H.H.F.F.D.D.Z.C.B.N.V.M.n.l.d.i.w.0.6.6.2.,.=.$.o.X.c c ' ~ ^ ] { |  . . .O.$.*.,.4.6.8.w.e.p.g.k.x.m.N.C.A.D.D.F.J.K.",
"P.L.K.K.J.J.H.G.F.D.Z.Z.C.B.B.V.M.b.l.d.y.w.7.6.6.1.,.=.$. .E u r R ) ) ' | | { | X.+.$.%.:.4.6.q.w.e.d.g.h.x.m.N.V.Z.D.D.H.J.K.",
"P.L.K.K.J.J.H.H.D.S.S.Z.C.V.N.N.M.b.j.d.y.w.q.0.6.4.:.%.#.! = . . * W ] {  .| |  .O.#.$.*.:.4.7.w.w.y.g.l.l.b.M.N.C.D.D.G.J.K.K.",
"P.L.L.L.J.H.F.F.D.D.S.Z.C.V.M.M.n.x.h.p.e.q.8.q.0.4.=.$.O.~ 3 @ @ 2 Q { ] | | X.O.#.#.%.=.,.4.6.q.y.i.g.j.x.m.N.V.Z.D.F.H.J.K.K.",
"P.P.P.L.K.H.F.D.D.S.C.Z.C.B.M.m.x.x.h.d.i.w.q.q.6.4.=.$.O.O.} h f ) { ' ) '  .O.#.%.*.=.1.4.6.6.q.y.p.g.l.x.M.N.V.Z.D.H.J.K.L.L.",
"P.P.P.L.K.H.D.D.D.Z.C.C.C.B.M.x.l.l.k.s.y.w.7.8.6.2.<.&.#.#.*.B B O.{ ' ' ]  .#.&.=.>.1.4.6.6.8.q.i.d.h.l.x.m.M.C.S.F.J.J.K.L.P.",
"P.L.K.K.J.F.D.D.S.Z.C.V.V.N.b.x.k.g.d.i.e.q.8.6.6.4.1.=.&.*.=.V M #.X. . .X.O.#.=.,.1.4.6.6.0.w.e.p.g.j.x.c.m.N.C.D.F.H.K.L.P.P.",
"P.L.K.J.J.F.D.S.Z.C.V.V.M.m.x.l.g.g.p.i.t.w.7.6.6.6.4.1.:.=.1.V B %.+.#.#.#.%.*.=.4.6.8.0.q.w.e.p.g.l.x.m.m.M.B.C.D.F.J.K.P.I.I.",
"P.L.K.J.J.H.D.S.Z.C.C.N.M.m.x.k.g.d.i.y.y.t.q.0.0.8.6.4.1.:.1.F V =.$.$.%.=.=.,.1.6.w.w.e.y.i.i.g.x.x.b.M.N.V.C.Z.D.F.J.K.P.I.I.",
"L.L.J.J.H.H.F.D.C.C.V.N.m.m.x.k.g.d.i.i.e.w.w.w.q.q.7.6.1.>.[ s a ( &.=.=.,.1.1.4.q.t.t.y.p.d.g.l.x.x.m.N.B.C.Z.S.D.H.J.L.P.I.I.",
"L.L.K.H.H.H.F.S.C.C.N.M.m.b.x.g.g.d.s.i.t.w.t.y.w.q.8.6.4.| : X X - ' ,.1.1.1.4.6.q.e.e.y.p.g.g.h.x.b.M.V.V.C.S.D.F.F.J.L.P.I.U.",
"L.L.K.H.H.D.S.S.Z.V.N.m.b.x.l.d.d.d.p.y.w.t.y.i.w.0.6.4.4.X.5 @ @ 3 ] 1.4.4.6.6.7.q.t.e.y.p.d.g.h.x.m.N.V.C.Z.D.F.F.H.J.L.P.I.U.",
"L.K.J.F.F.D.D.S.Z.C.N.m.x.j.g.d.d.p.y.w.w.w.y.y.e.q.8.4.3.1.O.z j o.<.1.6.8.0.w.w.w.t.y.y.d.g.k.l.x.m.N.V.Z.D.D.F.H.J.L.I.I.U.U.",
"K.J.H.F.F.D.D.D.C.V.M.b.l.h.g.f.i.y.e.t.e.t.e.y.y.q.8.6.4.1.4.F F 4.,.4.8.q.w.y.y.y.y.i.p.g.l.l.x.b.M.V.C.S.F.H.H.J.J.P.I.U.U.Y.",
"J.G.G.F.F.D.D.D.C.V.N.m.x.h.d.p.i.y.y.y.e.t.t.y.w.0.6.8.8.6.6.G C 2.,.4.q.e.i.i.i.i.d.g.h.l.x.x.m.M.V.Z.S.D.F.J.K.K.K.P.I.I.U.U.",
"J.H.F.H.F.S.S.D.C.V.N.m.x.k.s.i.i.y.e.y.e.t.y.i.y.q.q.q.q.6.0.G G 6.4.8.q.i.d.d.g.h.l.l.x.x.c.m.N.V.S.S.D.F.J.L.P.L.L.I.I.U.U.U.",
"J.H.H.H.F.D.D.A.C.V.M.m.x.g.i.i.i.y.e.y.y.y.i.s.s.i.y.e.w.q.y.K K y.w.e.y.p.d.g.l.b.b.m.m.m.M.N.C.S.D.D.H.J.K.P.P.P.I.U.U.U.Y.R.",
"J.J.H.F.D.D.Z.C.V.M.M.m.x.g.p.p.i.y.y.y.i.i.i.p.p.p.i.i.y.e.@.g j @.i.i.p.s.d.h.c.m.M.N.V.N.N.V.Z.D.D.F.J.J.K.L.P.P.I.U.U.U.Y.R.",
"J.H.F.F.D.D.C.C.V.M.M.m.x.k.d.d.d.i.i.i.p.p.d.d.p.i.p.p.i.*., o o > =.f.d.d.d.g.x.m.M.B.C.C.V.V.Z.S.D.F.H.J.J.K.L.L.P.I.U.Y.Y.R.",
"F.F.F.S.S.Z.C.C.V.N.M.x.h.g.d.d.d.s.d.d.i.i.a.d.d.i.i.d.p.=.9 # # 8 ,.d.d.g.g.h.l.m.M.N.V.C.C.C.C.Z.D.F.H.J.J.K.K.L.P.I.U.U.Y.Y.",
"D.D.D.S.Z.C.V.V.N.B.M.x.k.g.g.g.d.d.d.f.d.p.p.d.g.d.d.f.p.i.4.B V q.g.g.d.g.j.x.c.M.N.N.V.V.C.C.Z.S.D.G.G.H.J.K.K.L.L.P.I.U.U.Y.",
"S.S.D.D.Z.C.B.N.N.N.M.b.l.g.g.g.g.d.g.d.d.i.p.f.g.g.d.f.p.p.h.P I x.k.l.h.h.x.b.m.M.M.N.V.C.C.C.S.D.D.F.F.H.J.J.J.K.L.L.I.I.U.U.",
"S.Z.Z.S.C.B.N.N.M.M.m.x.l.g.g.g.k.h.h.d.d.d.d.d.d.d.g.s.s.d.x.P P l.g.g.l.x.x.m.m.m.N.B.V.C.C.C.Z.D.D.D.D.F.F.H.J.J.K.L.P.P.I.U.",
"Z.C.C.Z.V.N.N.M.m.c.c.x.h.g.g.l.l.l.l.d.d.d.d.d.d.d.g.d.g.g.x.I I l.g.g.h.l.c.m.m.M.N.V.B.C.V.V.C.Z.S.Z.S.D.D.G.H.J.J.K.L.L.I.I.",
"C.C.C.C.B.N.M.M.m.c.x.l.h.g.k.l.x.l.k.g.g.h.f.s.d.g.g.g.g.h.M.Y Y b.g.h.h.l.c.m.m.N.N.V.C.C.C.V.C.C.C.C.C.Z.S.F.H.H.J.J.K.K.L.P.",
"V.V.B.N.N.M.m.x.x.x.l.l.k.g.l.l.l.l.k.h.j.h.d.p.d.h.l.h.l.l.2.m n 2.x.x.x.x.b.M.M.M.N.V.C.C.C.V.C.V.V.V.C.C.Z.D.F.F.J.J.J.J.L.P.",
"M.m.M.m.b.c.x.h.h.h.l.l.h.h.l.x.x.x.x.x.x.g.d.g.g.h.l.l.c.6.1 O O < q.M.M.m.b.m.m.M.M.M.N.N.N.N.V.V.V.V.V.C.Z.S.D.D.F.H.J.J.J.K.",
"x.x.c.b.x.x.l.h.k.h.l.x.j.x.x.n.M.m.b.b.x.g.g.l.l.l.l.c.m.w.q % % 0 e.V.N.M.m.b.m.m.m.m.m.M.M.N.C.C.C.V.C.C.C.S.S.S.D.F.G.J.J.J.",
"x.x.x.x.x.x.x.l.l.l.l.x.x.b.M.M.M.M.M.m.c.l.l.x.c.b.m.m.M.M.d.H J g.V.V.V.N.M.m.b.b.b.b.m.M.M.N.V.V.V.B.C.C.C.C.Z.S.S.F.G.H.H.H.",
"x.x.l.j.l.l.x.l.l.h.h.j.v.M.N.N.M.N.N.M.m.x.x.c.m.m.m.M.M.M.Z.T T S.N.V.V.N.M.m.x.c.x.m.m.M.M.N.V.V.V.C.C.C.V.V.Z.S.S.D.F.H.H.F.",
"l.x.l.j.k.l.x.l.l.l.l.c.n.N.V.V.V.V.C.V.M.m.M.M.M.M.M.N.N.N.Z.T T S.V.C.C.B.M.M.M.n.m.M.N.B.V.V.C.C.C.C.C.C.C.C.Z.Z.S.D.D.F.H.F.",
"<.<.<.<.>.>.3.3.3.3.3.5.5.9.9.w.w.w.w.w.8.6.8.8.9.8.8.8.9.8.t.U U u.8.w.q.9.8.8.8.8.8.9.w.9.9.w.w.w.w.w.w.w.w.w.t.w.u.u.u.u.i.i.",
"b Z b b b b Z b b Z A A A A S S S S S S A A A A A A A A A A S i i S A S A A A A A A A A A A A S A A S S A S A A S S S S S S S S "
};
